{"glyphs":{"0":{"ha":853,"x_min":64,"x_max":790,"o":"m 157 110 q 110 173 157 110 q 64 468 64 235 q 158 827 64 701 q 426 953 253 953 q 695 827 600 953 q 790 468 790 701 q 697 111 790 236 q 426 -14 603 -14 q 157 110 250 -14 m 263 468 q 426 158 263 158 q 549 238 507 158 q 592 468 592 317 q 549 700 592 619 q 426 781 507 781 q 305 700 347 781 q 263 468 263 619 z "},"1":{"ha":499,"x_min":26,"x_max":397,"o":"m 397 0 l 204 0 l 204 772 l 26 772 l 26 939 l 397 939 l 397 0 z "},"2":{"ha":775,"x_min":39,"x_max":722,"o":"m 722 172 l 722 0 l 67 0 l 67 110 l 351 401 q 472 542 439 490 q 506 653 506 594 q 469 746 506 711 q 372 781 433 781 q 265 741 304 781 q 226 632 226 701 l 39 632 q 135 863 39 772 q 382 953 231 953 q 615 874 522 953 q 707 676 707 796 q 665 519 707 590 q 501 325 624 449 l 360 172 l 722 172 z "},"3":{"ha":801,"x_min":46,"x_max":753,"o":"m 393 -12 q 144 68 242 -12 q 46 276 47 149 l 233 276 q 281 176 238 213 q 396 140 324 140 q 513 176 471 140 q 554 274 554 211 q 506 369 554 335 q 371 404 457 404 l 269 404 l 269 557 l 360 557 q 471 590 431 557 q 511 681 511 624 q 476 768 511 736 q 382 800 442 800 q 288 765 322 800 q 251 668 253 729 l 64 668 q 159 872 65 790 q 392 953 253 953 q 624 881 538 953 q 710 694 710 810 q 569 493 710 567 q 705 410 657 465 q 753 279 753 354 q 653 68 753 149 q 393 -12 554 -12 z "},"4":{"ha":826,"x_min":21,"x_max":790,"o":"m 790 185 l 658 185 l 658 0 l 467 0 l 467 185 l 21 185 l 21 328 l 506 939 l 658 939 l 658 353 l 790 353 l 790 185 m 232 353 l 467 353 l 467 663 l 232 353 z "},"5":{"ha":793,"x_min":42,"x_max":754,"o":"m 399 -14 q 147 71 249 -14 q 42 286 46 156 l 235 286 q 287 192 243 225 q 397 158 331 158 q 515 201 476 158 q 554 307 554 243 q 513 412 554 368 q 392 456 472 456 q 232 361 275 456 l 74 413 l 156 939 l 699 939 l 699 767 l 296 767 l 267 575 q 424 619 335 619 q 668 528 582 619 q 754 307 754 436 q 660 81 754 176 q 399 -14 567 -14 z "},"6":{"ha":801,"x_min":38,"x_max":764,"o":"m 400 -11 q 140 80 243 -11 q 38 300 38 171 q 65 451 38 386 q 160 597 93 517 l 443 939 l 661 939 l 392 610 q 438 617 411 617 q 672 531 581 617 q 764 313 764 446 q 661 82 764 175 q 400 -11 558 -11 m 401 150 q 517 192 469 150 q 564 306 564 233 q 517 424 564 382 q 401 465 471 465 q 285 425 331 465 q 239 307 239 385 q 285 192 239 233 q 401 150 332 150 z "},"7":{"ha":714,"x_min":25,"x_max":685,"o":"m 685 826 l 338 0 l 131 0 l 471 767 l 25 767 l 25 939 l 685 939 l 685 826 z "},"8":{"ha":822,"x_min":50,"x_max":772,"o":"m 772 272 q 673 67 772 147 q 413 -12 574 -12 q 149 67 249 -12 q 50 272 50 146 q 208 488 50 418 q 82 683 82 557 q 174 877 82 801 q 413 953 265 953 q 649 877 557 953 q 740 683 740 801 q 614 488 740 557 q 772 272 772 417 m 281 676 q 316 592 281 624 q 413 561 351 561 q 508 592 472 561 q 543 676 543 624 q 508 767 543 733 q 413 800 472 800 q 316 767 351 800 q 281 676 281 733 m 249 276 q 292 176 249 213 q 413 140 336 140 q 531 177 488 140 q 575 276 575 214 q 531 372 575 336 q 413 408 486 408 q 292 373 336 408 q 249 276 249 338 z "},"9":{"ha":801,"x_min":38,"x_max":764,"o":"m 401 950 q 661 859 558 950 q 764 639 764 768 q 736 488 764 553 q 640 342 708 422 l 358 0 l 140 0 l 410 329 q 363 322 389 322 q 128 408 219 322 q 38 626 38 493 q 140 857 38 764 q 401 950 242 950 m 400 789 q 284 747 331 789 q 238 633 238 706 q 283 515 238 557 q 400 474 329 474 q 516 514 469 474 q 563 632 563 554 q 515 747 563 706 q 400 789 468 789 z "},"\u0000":{"ha":0,"x_min":0,"x_max":0,"o":""},"\r":{"ha":389,"x_min":0,"x_max":0,"o":""}," ":{"ha":290,"x_min":0,"x_max":0,"o":""},"!":{"ha":399,"x_min":65,"x_max":332,"o":"m 271 300 l 125 300 l 76 997 l 321 997 l 271 300 m 294 211 q 313 193 294 211 q 332 119 332 175 q 294 28 332 64 q 199 -7 256 -7 q 103 28 142 -7 q 65 119 65 64 q 103 211 65 175 q 199 247 140 247 q 294 211 257 247 z "},"\"":{"ha":622,"x_min":90,"x_max":531,"o":"m 253 629 l 103 629 l 90 997 l 265 997 l 253 629 m 518 629 l 369 629 l 357 997 l 531 997 l 518 629 z "},"#":{"ha":917,"x_min":97,"x_max":819,"o":"m 304 0 l 157 0 l 211 253 l 97 253 l 97 396 l 239 396 l 271 544 l 153 544 l 153 692 l 299 692 l 353 939 l 500 939 l 446 692 l 560 692 l 614 939 l 760 939 l 706 692 l 819 692 l 819 544 l 679 544 l 646 396 l 764 396 l 764 253 l 619 253 l 564 0 l 418 0 l 472 253 l 358 253 l 304 0 m 418 544 l 386 396 l 500 396 l 532 544 l 418 544 z "},"$":{"ha":846,"x_min":42,"x_max":793,"o":"m 478 -124 l 351 -124 l 351 -8 q 133 92 214 10 q 42 303 51 174 l 235 303 q 285 185 238 228 q 418 143 332 143 q 540 175 492 143 q 588 263 588 207 q 468 372 588 346 l 326 401 q 144 488 211 428 q 76 663 76 547 q 153 852 76 774 q 351 949 229 931 l 351 1065 l 478 1065 l 478 949 q 689 851 607 932 q 781 643 771 769 l 588 643 q 538 754 583 713 q 421 796 493 796 q 313 764 354 796 q 272 678 272 732 q 392 572 272 596 l 531 543 q 793 288 793 488 q 709 81 793 163 q 478 -11 625 0 l 478 -124 z "},"%":{"ha":1539,"x_min":33,"x_max":1506,"o":"m 554 449 q 510 407 554 449 q 338 364 467 364 q 121 449 208 364 q 33 656 33 535 q 120 863 33 778 q 338 947 207 947 q 554 863 467 947 q 642 656 642 778 q 554 449 642 535 m 568 0 l 414 0 l 947 939 l 1101 939 l 568 0 m 233 541 q 254 520 233 541 q 338 500 275 500 q 442 541 400 500 q 483 656 483 582 q 442 770 483 729 q 338 811 400 811 q 233 770 275 811 q 190 656 190 729 q 233 541 190 582 m 1418 73 q 1374 30 1418 73 q 1201 -12 1331 -12 q 985 73 1072 -12 q 897 279 897 158 q 984 486 897 401 q 1201 571 1071 571 q 1419 486 1332 571 q 1506 279 1506 401 q 1418 73 1506 158 m 1097 165 q 1118 145 1097 165 q 1201 125 1139 125 q 1306 165 1264 125 q 1349 279 1349 206 q 1306 394 1349 354 q 1201 435 1264 435 q 1097 394 1139 435 q 1054 279 1054 354 q 1097 165 1054 206 z "},"&":{"ha":963,"x_min":49,"x_max":961,"o":"m 456 544 l 633 353 q 647 482 644 408 l 824 482 q 753 225 821 353 l 961 0 l 724 0 l 642 88 q 390 -12 526 -12 q 142 70 235 -12 q 49 293 49 153 q 218 547 49 451 q 167 703 167 619 q 250 882 167 811 q 460 953 333 953 q 664 883 586 953 q 743 699 742 814 l 564 699 q 531 773 558 747 q 460 799 503 799 q 392 772 419 799 q 365 701 365 744 q 385 633 365 665 q 456 544 406 600 m 233 304 q 278 190 233 235 q 404 144 322 144 q 543 193 483 144 l 317 433 q 233 304 233 390 z "},"'":{"ha":356,"x_min":90,"x_max":265,"o":"m 253 629 l 103 629 l 90 997 l 265 997 l 253 629 z "},"(":{"ha":442,"x_min":71,"x_max":440,"o":"m 440 -268 l 247 -268 q 71 365 71 1 q 247 997 71 728 l 440 997 q 269 365 269 740 q 440 -268 269 -11 z "},")":{"ha":442,"x_min":3,"x_max":371,"o":"m 194 -268 l 3 -268 q 172 365 172 -10 q 3 997 172 739 l 194 997 q 371 365 371 728 q 194 -268 371 1 z "},"*":{"ha":694,"x_min":43,"x_max":651,"o":"m 347 603 l 219 438 l 107 521 l 235 678 l 43 739 l 83 868 l 281 801 l 272 997 l 422 997 l 414 801 l 611 868 l 651 739 l 460 678 l 588 521 l 475 438 l 347 603 z "},"+":{"ha":917,"x_min":111,"x_max":806,"o":"m 549 133 l 368 133 l 368 390 l 111 390 l 111 557 l 368 557 l 368 814 l 549 814 l 549 557 l 806 557 l 806 390 l 549 390 l 549 133 z "},",":{"ha":365,"x_min":1,"x_max":313,"o":"m 313 75 q 224 -125 313 -49 q 1 -203 135 -201 l 1 -100 q 127 -66 78 -99 q 185 24 176 -33 q 156 19 172 19 q 78 53 110 19 q 46 133 46 86 q 81 221 46 188 q 171 254 117 254 q 276 208 239 254 q 313 75 313 163 z "},"-":{"ha":500,"x_min":39,"x_max":463,"o":"m 463 296 l 39 296 l 39 468 l 463 468 l 463 296 z "},".":{"ha":365,"x_min":53,"x_max":313,"o":"m 313 124 q 276 30 313 67 q 183 -7 240 -7 q 90 30 126 -7 q 53 124 53 67 q 90 219 53 182 q 183 256 126 256 q 276 219 240 256 q 313 124 313 182 z "},"/":{"ha":701,"x_min":-50,"x_max":753,"o":"m 140 -268 l -50 -268 l 563 997 l 753 997 l 140 -268 z "},":":{"ha":365,"x_min":53,"x_max":313,"o":"m 313 613 q 276 519 313 556 q 183 482 240 482 q 90 519 126 482 q 53 613 53 556 q 90 708 53 671 q 183 744 126 744 q 276 708 240 744 q 313 613 313 671 m 313 124 q 276 30 313 67 q 183 -7 240 -7 q 90 30 126 -7 q 53 124 53 67 q 90 219 53 182 q 183 256 126 256 q 276 219 240 256 q 313 124 313 182 z "},";":{"ha":365,"x_min":1,"x_max":313,"o":"m 311 613 q 275 519 311 556 q 182 482 239 482 q 87 519 124 482 q 50 613 50 556 q 87 708 50 671 q 182 744 124 744 q 275 708 239 744 q 311 613 311 671 m 313 75 q 224 -125 313 -49 q 1 -203 135 -201 l 1 -100 q 127 -66 78 -99 q 185 24 176 -33 q 156 19 172 19 q 78 53 110 19 q 46 133 46 86 q 81 221 46 188 q 171 254 117 254 q 276 208 239 254 q 313 75 313 163 z "},"<":{"ha":917,"x_min":111,"x_max":806,"o":"m 111 544 l 806 828 l 806 660 l 306 468 l 806 275 l 806 108 l 111 392 l 111 544 z "},"=":{"ha":917,"x_min":111,"x_max":806,"o":"m 806 551 l 111 551 l 111 719 l 806 719 l 806 551 m 806 229 l 111 229 l 111 396 l 806 396 l 806 229 z "},">":{"ha":917,"x_min":111,"x_max":806,"o":"m 806 392 l 111 108 l 111 275 l 611 468 l 111 660 l 111 828 l 806 544 l 806 392 z "},"?":{"ha":719,"x_min":25,"x_max":694,"o":"m 206 718 l 25 718 q 126 929 31 847 q 367 1011 222 1011 q 603 938 513 1011 q 694 747 694 864 q 569 539 694 642 l 474 463 q 414 390 426 422 q 410 300 401 357 l 286 300 q 258 433 253 375 q 321 539 263 490 l 414 618 q 465 674 450 650 q 481 732 481 699 q 444 810 481 781 q 347 840 408 840 q 248 807 286 840 q 206 718 210 774 m 435 211 q 455 193 435 211 q 474 119 474 175 q 435 28 474 64 q 339 -7 397 -7 q 242 28 281 -7 q 203 119 203 64 q 241 211 203 175 q 339 247 279 247 q 435 211 397 247 z "},"@":{"ha":1354,"x_min":44,"x_max":1310,"o":"m 1046 -31 l 1046 -189 q 683 -282 885 -282 q 228 -103 413 -282 q 44 335 44 76 q 233 774 44 594 q 697 953 421 953 q 1133 799 957 953 q 1310 432 1310 644 q 1219 158 1310 264 q 993 53 1129 53 q 800 149 850 53 q 600 53 725 53 q 429 126 494 53 q 364 319 364 200 q 438 546 364 454 q 626 638 511 638 q 788 558 732 638 l 799 618 l 971 618 l 924 339 q 918 281 918 300 q 1001 199 918 199 q 1102 257 1067 199 q 1138 414 1138 315 q 1015 688 1138 571 q 697 806 893 806 q 353 670 489 806 q 217 335 217 535 q 349 1 217 138 q 683 -135 482 -135 q 1046 -31 901 -135 m 546 329 q 572 235 546 272 q 640 199 597 199 q 719 244 688 199 q 750 357 750 290 q 660 490 750 490 q 576 443 606 490 q 546 329 546 396 z "},"A":{"ha":1014,"x_min":18,"x_max":996,"o":"m 769 0 l 694 214 l 307 214 l 231 0 l 18 0 l 393 997 l 624 997 l 996 0 l 769 0 m 503 767 l 367 382 l 636 382 l 503 767 z "},"B":{"ha":899,"x_min":103,"x_max":849,"o":"m 849 293 q 753 78 849 156 q 493 0 658 0 l 103 0 l 103 997 l 478 997 q 726 928 636 997 q 817 732 817 858 q 676 521 817 593 q 849 293 849 461 m 461 831 l 294 831 l 294 599 l 461 599 q 577 629 538 599 q 617 715 617 660 q 577 800 617 769 q 461 831 538 831 m 476 431 l 294 431 l 294 167 l 476 167 q 606 202 561 167 q 650 301 650 238 q 606 396 650 361 q 476 431 561 431 z "},"C":{"ha":1092,"x_min":44,"x_max":1047,"o":"m 544 -21 q 189 130 333 -21 q 44 500 44 281 q 189 868 44 718 q 544 1018 333 1018 q 881 899 742 1018 q 1047 588 1021 779 l 824 588 q 729 762 806 694 q 547 829 653 829 q 340 738 419 829 q 261 500 261 646 q 340 260 261 353 q 547 168 419 168 q 728 235 653 168 q 824 411 804 303 l 1047 411 q 881 99 1021 218 q 544 -21 742 -21 z "},"D":{"ha":1010,"x_min":103,"x_max":965,"o":"m 457 0 l 103 0 l 103 997 l 457 997 q 828 861 692 997 q 965 504 965 725 q 826 142 965 283 q 457 0 686 0 m 314 815 l 314 182 l 446 182 q 672 265 594 182 q 749 504 749 349 q 672 735 749 654 q 446 815 594 815 l 314 815 z "},"E":{"ha":835,"x_min":103,"x_max":774,"o":"m 774 183 l 774 0 l 103 0 l 103 997 l 764 997 l 764 814 l 314 814 l 314 604 l 722 604 l 722 422 l 314 422 l 314 183 l 774 183 z "},"F":{"ha":789,"x_min":103,"x_max":747,"o":"m 314 0 l 103 0 l 103 997 l 747 997 l 747 814 l 314 814 l 314 563 l 679 563 l 679 381 l 314 381 l 314 0 z "},"G":{"ha":1106,"x_min":44,"x_max":1061,"o":"m 558 -21 q 192 126 339 -21 q 44 503 44 274 q 188 871 44 724 q 550 1018 332 1018 q 867 918 736 1018 q 1049 651 999 818 l 800 651 q 709 780 776 731 q 544 829 642 829 q 340 741 419 829 q 261 497 261 653 q 342 253 261 349 q 568 158 422 158 q 744 216 675 158 q 836 369 814 274 l 547 369 l 547 538 l 1061 538 q 933 135 1071 292 q 558 -21 794 -21 z "},"H":{"ha":1060,"x_min":103,"x_max":957,"o":"m 314 0 l 103 0 l 103 997 l 314 997 l 314 604 l 746 604 l 746 997 l 957 997 l 957 0 l 746 0 l 746 422 l 314 422 l 314 0 z "},"I":{"ha":415,"x_min":103,"x_max":314,"o":"m 314 0 l 103 0 l 103 997 l 314 997 l 314 0 z "},"J":{"ha":867,"x_min":14,"x_max":772,"o":"m 772 997 l 772 358 q 673 83 772 186 q 392 -21 574 -21 q 115 81 214 -21 q 14 347 17 183 l 225 347 q 392 168 229 168 q 560 353 560 168 l 560 997 l 772 997 z "},"K":{"ha":944,"x_min":103,"x_max":929,"o":"m 314 0 l 103 0 l 103 997 l 314 997 l 314 558 l 676 997 l 918 997 l 522 519 l 929 0 l 669 0 l 314 456 l 314 0 z "},"L":{"ha":789,"x_min":103,"x_max":747,"o":"m 747 0 l 103 0 l 103 997 l 314 997 l 314 190 l 747 190 l 747 0 z "},"M":{"ha":1289,"x_min":103,"x_max":1188,"o":"m 556 0 l 294 663 l 294 0 l 103 0 l 103 997 l 356 997 l 644 258 l 935 997 l 1188 997 l 1188 0 l 996 0 l 996 668 l 732 0 l 556 0 z "},"N":{"ha":1063,"x_min":103,"x_max":960,"o":"m 753 0 l 296 696 l 296 0 l 103 0 l 103 997 l 331 997 l 765 336 l 765 997 l 960 997 l 960 0 l 753 0 z "},"O":{"ha":1110,"x_min":44,"x_max":1067,"o":"m 554 -21 q 191 128 338 -21 q 44 500 44 276 q 191 870 44 722 q 554 1018 338 1018 q 919 870 772 1018 q 1067 500 1067 722 q 919 128 1067 276 q 554 -21 772 -21 m 341 263 q 381 216 341 263 q 554 168 421 168 q 768 263 688 168 q 849 500 849 358 q 769 735 849 642 q 554 829 689 829 q 341 735 421 829 q 261 500 261 642 q 341 263 261 358 z "},"P":{"ha":906,"x_min":103,"x_max":865,"o":"m 471 325 l 314 325 l 314 0 l 103 0 l 103 997 l 471 997 q 760 911 656 997 q 865 665 865 825 q 760 415 865 504 q 471 325 654 325 m 469 819 l 314 819 l 314 503 l 469 503 q 607 546 558 503 q 656 664 656 589 q 607 778 656 738 q 469 819 558 819 z "},"Q":{"ha":1110,"x_min":44,"x_max":1067,"o":"m 554 -21 q 191 128 338 -21 q 44 500 44 276 q 191 870 44 722 q 554 1018 338 1018 q 919 870 772 1018 q 1067 500 1067 722 q 1001 238 1067 356 q 824 53 936 121 l 990 -253 l 776 -253 l 643 -14 q 554 -21 594 -21 m 341 263 q 381 216 341 263 q 554 168 421 168 q 768 263 688 168 q 849 500 849 358 q 769 735 849 642 q 554 829 689 829 q 341 735 421 829 q 261 500 261 642 q 341 263 261 358 z "},"R":{"ha":951,"x_min":103,"x_max":922,"o":"m 314 0 l 103 0 l 103 997 l 493 997 q 786 913 682 997 q 890 674 890 828 q 831 497 890 572 q 665 385 772 421 l 922 0 l 671 0 l 446 353 l 314 353 l 314 0 m 314 822 l 314 526 l 483 526 q 679 674 679 526 q 483 822 679 822 l 314 822 z "},"S":{"ha":921,"x_min":42,"x_max":868,"o":"m 868 310 q 759 76 868 165 q 465 -14 650 -14 q 165 79 278 -14 q 42 332 53 172 l 256 332 q 313 200 260 249 q 461 151 367 151 q 594 185 543 151 q 644 279 644 219 q 511 396 644 369 l 347 428 q 152 519 225 451 q 79 704 79 588 q 185 924 79 838 q 451 1010 290 1010 q 732 917 621 1010 q 853 671 843 825 l 639 671 q 583 798 633 750 q 454 846 533 846 q 336 809 379 846 q 293 718 293 772 q 428 607 293 633 l 599 572 q 868 310 868 519 z "},"T":{"ha":888,"x_min":24,"x_max":864,"o":"m 549 0 l 338 0 l 338 807 l 24 807 l 24 997 l 864 997 l 864 807 l 549 807 l 549 0 z "},"U":{"ha":1019,"x_min":100,"x_max":921,"o":"m 921 997 l 921 379 q 812 89 921 199 q 511 -21 703 -21 q 208 89 317 -21 q 100 379 100 199 l 100 997 l 311 997 l 311 375 q 360 223 311 278 q 511 168 410 168 q 660 223 611 168 q 710 375 710 278 l 710 997 l 921 997 z "},"V":{"ha":972,"x_min":11,"x_max":961,"o":"m 961 997 l 600 0 l 369 0 l 11 997 l 239 997 l 492 246 l 750 997 l 961 997 z "},"W":{"ha":1347,"x_min":18,"x_max":1331,"o":"m 860 0 l 674 697 l 488 0 l 274 0 l 18 997 l 224 997 l 385 321 l 568 997 l 783 997 l 961 318 l 1124 997 l 1331 997 l 1074 0 l 860 0 z "},"X":{"ha":994,"x_min":31,"x_max":964,"o":"m 278 0 l 31 0 l 343 510 l 63 997 l 308 997 l 503 640 l 710 997 l 946 997 l 656 501 l 964 0 l 715 0 l 497 375 l 278 0 z "},"Y":{"ha":936,"x_min":8,"x_max":928,"o":"m 572 375 l 572 0 l 361 0 l 361 375 l 8 997 l 236 997 l 474 568 l 715 997 l 928 997 l 572 375 z "},"Z":{"ha":894,"x_min":57,"x_max":843,"o":"m 843 0 l 57 0 l 57 167 l 567 815 l 58 815 l 58 997 l 826 997 l 826 828 l 314 182 l 843 182 l 843 0 z "},"[":{"ha":450,"x_min":93,"x_max":428,"o":"m 428 -268 l 93 -268 l 93 997 l 428 997 l 428 831 l 292 831 l 292 -101 l 428 -101 l 428 -268 z "},"\\":{"ha":701,"x_min":-50,"x_max":753,"o":"m 753 -268 l 563 -268 l -50 997 l 140 997 l 753 -268 z "},"]":{"ha":450,"x_min":22,"x_max":357,"o":"m 357 -268 l 22 -268 l 22 -101 l 158 -101 l 158 831 l 22 831 l 22 997 l 357 997 l 357 -268 z "},"^":{"ha":918,"x_min":75,"x_max":843,"o":"m 649 381 l 460 751 l 269 381 l 75 381 l 367 939 l 553 939 l 843 381 l 649 381 z "},"_":{"ha":694,"x_min":0,"x_max":694,"o":"m 694 -268 l 0 -268 l 0 -101 l 694 -101 l 694 -268 z "},"`":{"ha":694,"x_min":165,"x_max":528,"o":"m 528 801 l 328 801 l 165 1013 l 389 1013 l 528 801 z "},"a":{"ha":765,"x_min":47,"x_max":685,"o":"m 528 0 l 528 92 q 304 -14 454 -14 q 118 49 189 -14 q 47 215 47 111 q 133 381 47 324 q 381 438 218 438 q 504 429 436 438 l 504 474 q 471 571 504 536 q 376 606 438 606 q 278 571 314 606 q 236 474 242 536 l 63 474 q 156 678 71 601 q 376 756 242 756 q 603 679 522 756 q 685 467 685 603 l 685 0 l 528 0 m 229 221 q 260 147 229 174 q 346 119 292 119 q 462 157 419 119 q 504 260 504 194 l 504 313 q 393 322 440 322 q 229 221 229 322 z "},"b":{"ha":864,"x_min":86,"x_max":826,"o":"m 826 371 q 735 96 826 206 q 497 -14 644 -14 q 264 107 353 -14 l 264 0 l 86 0 l 86 997 l 279 997 l 279 646 q 497 756 361 756 q 735 647 644 756 q 826 371 826 538 m 628 371 q 578 528 628 472 q 454 585 529 585 q 331 529 381 585 q 281 374 281 474 q 330 215 281 272 q 454 158 379 158 q 578 215 529 158 q 628 371 628 271 z "},"c":{"ha":796,"x_min":38,"x_max":758,"o":"m 399 -14 q 138 94 239 -14 q 38 371 38 201 q 140 647 38 538 q 399 756 242 756 q 642 665 543 756 q 758 425 740 575 l 556 425 q 506 542 549 499 q 399 585 464 585 q 279 527 324 585 q 235 371 235 469 q 278 214 235 271 q 399 157 322 157 q 506 199 465 157 q 556 317 547 240 l 758 317 q 644 75 742 164 q 399 -14 547 -14 z "},"d":{"ha":864,"x_min":38,"x_max":778,"o":"m 38 371 q 128 647 38 538 q 367 756 219 756 q 586 646 500 756 l 586 997 l 778 997 l 778 0 l 601 0 l 601 107 q 367 -14 511 -14 q 128 96 219 -14 q 38 371 38 206 m 236 371 q 285 215 236 271 q 410 158 335 158 q 535 215 485 158 q 585 374 585 272 q 535 530 585 475 q 410 585 485 585 q 285 528 335 585 q 236 371 236 472 z "},"e":{"ha":804,"x_min":38,"x_max":761,"o":"m 408 -12 q 140 94 242 -12 q 38 374 38 200 q 142 647 38 539 q 406 756 246 756 q 685 631 582 756 q 761 324 788 506 l 235 324 q 404 136 254 136 q 568 251 533 136 l 760 251 q 637 56 729 125 q 408 -12 544 -12 m 401 614 q 238 446 263 614 l 557 446 q 511 569 553 524 q 401 614 469 614 z "},"f":{"ha":554,"x_min":7,"x_max":542,"o":"m 349 0 l 157 0 l 157 576 l 7 576 l 7 742 l 157 742 l 157 782 q 216 953 157 893 q 390 1013 275 1013 q 510 990 458 1013 l 510 838 q 436 850 478 850 q 349 778 349 850 l 349 742 l 542 742 l 542 576 l 349 576 l 349 0 z "},"g":{"ha":842,"x_min":38,"x_max":754,"o":"m 401 -282 q 158 -206 251 -282 q 60 -3 65 -131 l 246 -3 q 400 -132 258 -132 q 563 32 563 -132 l 563 140 q 478 58 532 88 q 356 28 424 28 q 128 131 219 28 q 38 392 38 235 q 124 654 38 553 q 349 756 211 756 q 578 640 496 756 l 578 742 l 754 742 l 754 35 q 660 -197 754 -112 q 401 -282 567 -282 m 275 535 q 253 509 275 535 q 231 392 231 482 q 274 248 231 301 q 393 194 318 194 q 515 249 469 194 q 561 390 561 303 q 515 535 561 481 q 393 589 469 589 q 275 535 319 589 z "},"h":{"ha":824,"x_min":86,"x_max":743,"o":"m 279 404 l 279 0 l 86 0 l 86 997 l 279 997 l 279 644 q 492 756 363 756 q 674 683 606 756 q 743 479 743 611 l 743 0 l 551 0 l 551 414 q 421 585 551 585 q 319 538 360 585 q 279 404 279 490 z "},"i":{"ha":365,"x_min":53,"x_max":310,"o":"m 310 914 q 274 832 310 864 q 181 800 238 800 q 89 833 125 800 q 53 914 53 865 q 89 998 53 965 q 181 1031 125 1031 q 274 998 238 1031 q 310 914 310 965 m 279 0 l 86 0 l 86 742 l 279 742 l 279 0 z "},"j":{"ha":364,"x_min":-82,"x_max":310,"o":"m 310 914 q 274 832 310 864 q 181 800 238 800 q 88 832 124 800 q 51 914 51 864 q 88 998 51 965 q 181 1031 124 1031 q 274 998 238 1031 q 310 914 310 965 m 278 742 l 278 3 q 208 -211 278 -140 q 22 -282 139 -282 q -82 -267 -42 -282 l -82 -87 q -1 -104 -50 -104 q 86 8 86 -104 l 86 742 l 278 742 z "},"k":{"ha":811,"x_min":86,"x_max":808,"o":"m 279 0 l 86 0 l 86 997 l 279 997 l 279 428 l 550 742 l 772 742 l 465 386 l 808 0 l 563 0 l 279 344 l 279 0 z "},"l":{"ha":368,"x_min":86,"x_max":281,"o":"m 281 0 l 86 0 l 86 997 l 281 997 l 281 0 z "},"m":{"ha":1278,"x_min":86,"x_max":1199,"o":"m 279 0 l 86 0 l 86 742 l 264 742 l 264 636 q 486 756 350 756 q 703 624 644 756 q 947 756 797 756 q 1131 683 1063 756 q 1199 479 1199 610 l 1199 0 l 1007 0 l 1007 418 q 974 541 1007 497 q 878 585 940 585 q 778 540 818 585 q 739 414 739 494 l 739 0 l 547 0 l 547 418 q 514 541 547 497 q 418 585 481 585 q 318 540 357 585 q 279 414 279 494 l 279 0 z "},"n":{"ha":824,"x_min":86,"x_max":743,"o":"m 279 404 l 279 0 l 86 0 l 86 742 l 264 742 l 264 636 q 492 756 351 756 q 674 683 606 756 q 743 479 743 611 l 743 0 l 551 0 l 551 414 q 421 585 551 585 q 319 538 360 585 q 279 404 279 490 z "},"o":{"ha":828,"x_min":38,"x_max":790,"o":"m 683 97 q 629 42 683 97 q 414 -14 575 -14 q 145 97 253 -14 q 38 371 38 208 q 145 644 38 533 q 414 756 253 756 q 683 644 575 756 q 790 371 790 533 q 683 97 790 208 m 288 214 q 313 185 288 214 q 414 157 339 157 q 540 214 489 157 q 592 371 592 271 q 540 526 592 469 q 414 583 489 583 q 288 526 339 583 q 236 371 236 469 q 288 214 236 271 z "},"p":{"ha":864,"x_min":86,"x_max":826,"o":"m 735 647 q 781 592 735 647 q 826 371 826 538 q 735 95 826 204 q 497 -14 644 -14 q 279 96 364 -14 l 279 -268 l 86 -268 l 86 742 l 264 742 l 264 633 q 497 756 351 756 q 735 647 644 756 m 628 371 q 578 528 628 471 q 454 585 528 585 q 330 528 379 585 q 281 371 281 472 q 330 214 281 269 q 454 158 379 158 q 578 214 529 158 q 628 371 628 269 z "},"q":{"ha":864,"x_min":38,"x_max":778,"o":"m 128 95 q 83 150 128 95 q 38 371 38 204 q 128 647 38 538 q 367 756 219 756 q 601 633 510 756 l 601 742 l 778 742 l 778 -268 l 586 -268 l 586 96 q 367 -14 501 -14 q 128 95 219 -14 m 236 371 q 285 214 236 269 q 410 158 335 158 q 535 214 485 158 q 585 371 585 269 q 535 528 585 472 q 410 585 485 585 q 286 528 336 585 q 236 371 236 471 z "},"r":{"ha":567,"x_min":86,"x_max":553,"o":"m 279 360 l 279 0 l 86 0 l 86 742 l 264 742 l 264 599 q 383 709 304 668 q 553 750 463 750 l 553 550 q 349 518 419 560 q 279 360 279 476 z "},"s":{"ha":758,"x_min":39,"x_max":713,"o":"m 713 238 q 626 53 713 119 q 383 -14 540 -14 q 139 56 228 -14 q 39 253 50 126 l 224 253 q 269 162 225 196 q 386 128 314 128 q 482 147 446 128 q 518 204 518 167 q 494 256 518 239 q 417 285 471 274 l 283 310 q 126 383 182 328 q 69 522 69 438 q 152 691 69 626 q 372 756 235 756 q 601 686 513 756 q 700 497 690 617 l 515 497 q 472 583 510 551 q 372 614 433 614 q 286 594 318 614 q 254 540 254 575 q 277 492 254 508 q 351 465 300 475 l 494 439 q 713 238 713 397 z "},"t":{"ha":586,"x_min":0,"x_max":554,"o":"m 547 188 l 547 19 q 399 -14 481 -14 q 216 51 282 -14 q 150 240 150 117 l 150 576 l 0 576 l 0 742 l 150 742 l 150 961 l 342 961 l 342 742 l 554 742 l 554 576 l 342 576 l 342 285 q 450 164 342 164 q 547 188 504 164 z "},"u":{"ha":817,"x_min":79,"x_max":729,"o":"m 538 313 l 538 742 l 729 742 l 729 0 l 553 0 l 553 97 q 464 17 522 47 q 336 -14 406 -14 q 149 58 219 -14 q 79 269 79 129 l 79 742 l 272 742 l 272 307 q 401 157 272 157 q 497 199 457 157 q 538 313 538 240 z "},"v":{"ha":753,"x_min":-3,"x_max":754,"o":"m 754 742 l 482 0 l 271 0 l -3 742 l 206 742 l 382 219 l 560 742 l 754 742 z "},"w":{"ha":1110,"x_min":11,"x_max":1099,"o":"m 694 0 l 554 482 l 415 0 l 222 0 l 11 742 l 199 742 l 325 272 l 461 742 l 651 742 l 783 272 l 908 742 l 1099 742 l 886 0 l 694 0 z "},"x":{"ha":796,"x_min":17,"x_max":781,"o":"m 232 0 l 17 0 l 267 378 l 33 742 l 256 742 l 407 486 l 560 742 l 763 742 l 532 371 l 781 0 l 561 0 l 394 267 l 232 0 z "},"y":{"ha":753,"x_min":-3,"x_max":754,"o":"m 754 742 l 393 -268 l 183 -268 l 289 8 l -3 742 l 206 742 l 392 233 l 561 742 l 754 742 z "},"z":{"ha":735,"x_min":53,"x_max":686,"o":"m 686 0 l 54 0 l 54 156 l 436 575 l 53 575 l 53 742 l 675 742 l 675 583 l 292 168 l 686 168 l 686 0 z "},"{":{"ha":471,"x_min":15,"x_max":456,"o":"m 15 282 l 15 449 q 107 474 79 449 q 135 554 135 499 l 135 774 q 203 942 135 882 q 394 1001 271 1001 q 456 997 422 1001 l 456 831 q 418 835 435 835 q 335 754 335 835 l 335 532 q 208 367 335 393 q 335 199 335 338 l 335 -24 q 419 -106 335 -106 q 456 -101 438 -106 l 456 -268 q 394 -272 422 -272 q 203 -212 271 -272 q 135 -44 135 -153 l 135 175 q 107 256 135 231 q 15 282 79 282 z "},"|":{"ha":458,"x_min":133,"x_max":326,"o":"m 326 -268 l 133 -268 l 133 997 l 326 997 l 326 -268 z "},"}":{"ha":471,"x_min":15,"x_max":456,"o":"m 456 447 l 456 281 q 364 256 392 281 q 336 175 336 231 l 336 -44 q 268 -212 336 -153 q 76 -272 200 -272 q 15 -268 49 -272 l 15 -101 q 53 -106 36 -106 q 136 -25 136 -106 l 136 197 q 263 363 136 336 q 136 531 136 392 l 136 753 q 51 835 136 835 q 15 831 33 835 l 15 997 q 78 1001 49 1001 q 268 942 200 1001 q 336 774 336 882 l 336 554 q 365 473 336 499 q 456 447 393 447 z "},"~":{"ha":917,"x_min":81,"x_max":836,"o":"m 629 333 q 506 361 572 333 q 387 417 440 389 q 306 444 333 444 q 253 419 269 444 q 238 331 236 393 l 81 331 q 122 537 63 457 q 289 617 182 617 q 411 589 346 617 q 531 533 476 561 q 613 506 585 506 q 665 531 649 506 q 679 619 681 557 l 836 619 q 797 413 856 493 q 629 333 738 333 z "}," ":{"ha":290,"x_min":0,"x_max":0,"o":""},"¡":{"ha":397,"x_min":65,"x_max":332,"o":"m 332 621 q 294 529 332 565 q 199 493 257 493 q 103 529 140 493 q 65 621 65 565 q 103 711 65 675 q 199 747 142 747 q 294 711 256 747 q 332 621 332 675 m 321 -268 l 78 -268 l 126 439 l 271 439 l 321 -268 z "},"¢":{"ha":824,"x_min":38,"x_max":786,"o":"m 472 -110 l 346 -110 l 346 -8 q 123 119 208 14 q 38 371 38 224 q 123 624 38 519 q 346 750 208 728 l 346 867 l 472 867 l 472 751 q 686 646 601 733 q 786 425 771 558 l 583 425 q 531 539 576 494 q 413 583 485 583 q 284 525 333 583 q 235 371 235 467 q 284 217 235 276 q 413 157 333 157 q 530 203 483 157 q 583 317 576 249 l 786 317 q 685 97 771 185 q 472 -10 600 8 l 472 -110 z "},"£":{"ha":825,"x_min":40,"x_max":783,"o":"m 258 114 q 210 88 225 114 q 197 0 196 63 l 40 0 q 58 160 26 93 q 156 256 90 228 l 156 422 l 51 422 l 51 547 l 156 547 l 156 653 q 241 872 156 790 q 467 953 326 953 q 687 879 599 953 q 783 669 775 806 l 576 669 q 461 781 567 781 q 379 748 408 781 q 350 653 350 715 l 350 547 l 576 547 l 576 422 l 350 422 l 350 251 q 418 215 372 240 q 496 176 464 189 q 557 163 528 163 q 626 276 638 163 l 783 276 q 745 69 803 150 q 581 -11 688 -11 q 458 20 524 -11 q 340 83 393 51 q 258 114 286 114 z "},"¤":{"ha":917,"x_min":90,"x_max":826,"o":"m 601 215 q 458 178 539 178 q 315 215 378 178 l 204 104 l 92 217 l 194 319 q 151 469 151 386 q 194 621 151 551 l 90 725 l 204 836 l 315 725 q 458 761 383 761 q 601 725 533 761 l 713 836 l 826 725 l 722 621 q 765 469 765 551 q 722 319 765 386 l 825 217 l 713 104 l 601 215 m 351 356 q 372 335 351 356 q 458 315 393 315 q 566 356 524 315 q 608 469 608 396 q 566 583 608 543 q 458 624 524 624 q 351 583 393 624 q 308 469 308 543 q 351 356 308 396 z "},"¥":{"ha":840,"x_min":26,"x_max":814,"o":"m 788 190 l 517 190 l 517 0 l 322 0 l 322 190 l 53 190 l 53 315 l 322 315 l 322 353 l 297 401 l 53 401 l 53 526 l 235 526 l 26 938 l 238 938 l 426 542 l 619 938 l 814 938 l 604 526 l 788 526 l 788 401 l 542 401 l 517 353 l 517 315 l 788 315 l 788 190 z "},"¦":{"ha":456,"x_min":133,"x_max":322,"o":"m 133 997 l 322 997 l 322 436 l 133 436 l 133 997 m 133 293 l 322 293 l 322 -268 l 133 -268 l 133 293 z "},"§":{"ha":806,"x_min":43,"x_max":763,"o":"m 43 321 q 210 517 43 457 q 94 706 94 578 q 178 883 94 817 q 393 950 263 950 q 620 875 532 950 q 718 681 708 800 l 529 681 q 485 772 522 738 q 393 806 449 806 q 310 779 342 806 q 278 713 278 753 q 396 608 278 636 l 528 574 q 706 489 650 542 q 763 351 763 436 q 608 136 763 206 q 728 -42 728 83 q 639 -216 728 -147 q 417 -285 550 -285 q 167 -210 263 -285 q 60 -8 71 -135 l 249 -8 q 296 -104 254 -68 q 404 -140 338 -140 q 502 -113 465 -140 q 539 -40 539 -86 q 509 22 539 -1 q 411 63 479 46 l 279 94 q 43 321 43 151 m 224 343 q 281 258 224 288 q 435 228 339 228 q 582 328 582 228 q 524 413 582 383 q 369 443 465 443 q 261 416 299 443 q 224 343 224 389 z "},"¨":{"ha":694,"x_min":75,"x_max":619,"o":"m 619 911 q 586 831 619 863 q 503 800 553 800 q 417 831 450 800 q 383 911 383 863 q 417 994 383 963 q 503 1025 450 1025 q 586 993 553 1025 q 619 911 619 961 m 311 911 q 278 831 311 863 q 193 800 246 800 q 108 831 142 800 q 75 911 75 863 q 108 993 75 961 q 193 1025 142 1025 q 278 994 246 1025 q 311 911 311 963 z "},"©":{"ha":1093,"x_min":54,"x_max":1039,"o":"m 546 -12 q 196 128 338 -12 q 54 469 54 268 q 195 813 54 672 q 546 953 336 953 q 897 813 756 953 q 1039 469 1039 672 q 897 128 1039 268 q 546 -12 756 -12 m 546 88 q 819 197 713 88 q 925 469 925 307 q 819 742 925 632 q 546 851 713 851 q 274 742 381 851 q 168 469 168 632 q 275 198 168 308 q 546 88 382 88 m 672 431 l 796 431 q 714 274 783 333 q 546 215 644 215 q 371 289 443 215 q 299 469 299 363 q 371 650 299 576 q 546 724 443 724 q 714 664 644 724 q 796 508 783 604 l 672 508 q 630 589 664 558 q 547 619 596 619 q 454 578 489 619 q 419 469 419 536 q 454 360 419 403 q 547 318 489 318 q 631 349 596 318 q 672 431 665 381 z "},"ª":{"ha":594,"x_min":29,"x_max":546,"o":"m 414 354 l 414 422 q 236 343 356 343 q 86 392 143 343 q 29 524 29 442 q 97 655 29 610 q 296 700 165 700 q 393 693 340 700 l 393 726 q 367 797 393 772 q 293 822 340 822 q 215 797 244 822 q 185 726 186 772 l 40 726 q 119 885 46 821 q 294 949 192 949 q 479 888 413 949 q 546 719 546 826 l 546 354 l 414 354 m 181 529 q 205 474 181 494 q 271 454 229 454 q 360 482 328 454 q 393 556 393 510 l 393 596 q 307 603 353 603 q 181 529 181 603 z "},"«":{"ha":797,"x_min":24,"x_max":772,"o":"m 438 86 l 226 86 l 24 371 l 226 656 l 438 656 l 246 371 l 438 86 m 772 86 l 561 86 l 358 371 l 561 656 l 772 656 l 582 371 l 772 86 z "},"¬":{"ha":917,"x_min":111,"x_max":792,"o":"m 792 240 l 611 240 l 611 540 l 111 540 l 111 707 l 792 707 l 792 240 z "},"­":{"ha":500,"x_min":39,"x_max":463,"o":"m 463 296 l 39 296 l 39 468 l 463 468 l 463 296 z "},"®":{"ha":1093,"x_min":54,"x_max":1039,"o":"m 546 -12 q 196 128 338 -12 q 54 469 54 268 q 195 813 54 672 q 546 953 336 953 q 897 813 756 953 q 1039 469 1039 672 q 897 128 1039 268 q 546 -12 756 -12 m 546 88 q 819 197 713 88 q 925 469 925 307 q 819 742 925 632 q 546 851 713 851 q 274 742 381 851 q 168 469 168 632 q 275 198 168 308 q 546 88 382 88 m 631 225 l 526 392 l 472 392 l 472 225 l 357 225 l 357 714 l 553 714 q 701 672 649 714 q 754 553 754 631 q 725 465 754 503 q 647 411 696 428 l 772 225 l 631 225 m 547 618 l 472 618 l 472 489 l 547 489 q 639 553 639 489 q 547 618 639 618 z "},"¯":{"ha":694,"x_min":121,"x_max":575,"o":"m 575 818 l 121 818 l 121 944 l 575 944 l 575 818 z "},"°":{"ha":661,"x_min":25,"x_max":636,"o":"m 549 506 q 505 463 549 506 q 331 421 461 421 q 113 506 200 421 q 25 713 25 590 q 113 919 25 835 q 331 1004 200 1004 q 549 919 461 1004 q 636 713 636 835 q 549 506 636 590 m 224 600 q 245 578 224 600 q 331 557 267 557 q 437 600 394 557 q 479 713 479 643 q 437 826 479 783 q 331 868 394 868 q 224 826 267 868 q 181 713 181 783 q 224 600 181 643 z "},"±":{"ha":917,"x_min":111,"x_max":806,"o":"m 549 246 l 368 246 l 368 503 l 111 503 l 111 671 l 368 671 l 368 926 l 549 926 l 549 671 l 806 671 l 806 503 l 549 503 l 549 246 m 806 0 l 111 0 l 111 168 l 806 168 l 806 0 z "},"²":{"ha":513,"x_min":25,"x_max":479,"o":"m 479 829 l 479 715 l 43 715 l 44 788 l 233 958 q 313 1038 290 1008 q 336 1101 336 1068 q 311 1153 336 1132 q 244 1174 286 1174 q 174 1152 199 1174 q 149 1090 149 1131 l 25 1090 q 89 1233 25 1178 q 253 1288 153 1288 q 410 1237 351 1288 q 469 1118 469 1186 q 439 1021 469 1064 q 329 908 408 978 l 246 829 l 479 829 z "},"³":{"ha":553,"x_min":42,"x_max":511,"o":"m 511 886 q 445 758 511 807 q 272 710 379 710 q 106 759 171 710 q 42 885 42 808 l 165 885 q 274 811 172 811 q 351 830 322 811 q 379 883 379 849 q 347 935 379 917 q 257 954 314 954 l 189 954 l 189 1056 l 250 1056 q 324 1074 297 1056 q 351 1122 351 1092 q 328 1170 351 1153 q 265 1188 306 1188 q 202 1168 225 1188 q 178 1115 179 1149 l 54 1115 q 117 1239 56 1189 q 271 1289 179 1289 q 426 1245 368 1289 q 483 1132 483 1201 q 396 1013 483 1058 q 511 886 511 976 z "},"´":{"ha":694,"x_min":165,"x_max":528,"o":"m 367 801 l 165 801 l 304 1013 l 528 1013 l 367 801 z "},"µ":{"ha":836,"x_min":86,"x_max":749,"o":"m 276 -268 l 86 -268 l 86 742 l 279 742 l 279 321 q 419 157 279 157 q 521 202 485 157 q 557 317 557 247 l 557 742 l 749 742 l 749 0 l 561 0 l 561 79 q 497 11 539 36 q 407 -14 456 -14 q 261 42 310 -14 l 276 -268 z "},"¶":{"ha":1025,"x_min":40,"x_max":997,"o":"m 576 -268 l 385 -268 l 385 272 q 131 369 222 283 q 40 604 40 454 q 145 852 40 764 q 431 940 250 940 l 997 940 l 997 768 l 888 768 l 888 -268 l 694 -268 l 694 768 l 576 768 l 576 -268 z "},"·":{"ha":365,"x_min":53,"x_max":313,"o":"m 313 368 q 276 274 313 311 q 183 238 240 238 q 90 274 126 238 q 53 368 53 311 q 90 463 53 426 q 183 500 126 500 q 276 463 240 500 q 313 368 313 426 z "},"¸":{"ha":694,"x_min":174,"x_max":522,"o":"m 522 -157 q 474 -242 522 -208 q 351 -275 426 -275 q 228 -240 275 -275 q 174 -142 182 -206 l 292 -142 q 344 -185 300 -185 q 378 -174 365 -185 q 390 -146 390 -162 q 285 -96 390 -85 l 315 22 l 410 22 l 390 -44 q 486 -82 450 -51 q 522 -157 522 -112 z "},"¹":{"ha":335,"x_min":18,"x_max":264,"o":"m 264 715 l 135 715 l 135 1168 l 18 1168 l 18 1279 l 264 1279 l 264 715 z "},"º":{"ha":678,"x_min":33,"x_max":643,"o":"m 339 343 q 121 431 208 343 q 33 646 33 518 q 121 861 33 774 q 339 949 208 949 q 556 861 468 949 q 643 646 643 774 q 556 431 643 518 q 339 343 468 343 m 339 488 q 437 530 397 488 q 476 646 476 572 q 437 762 476 719 q 339 804 397 804 q 240 762 281 804 q 200 646 200 719 q 240 530 200 572 q 339 488 279 488 z "},"»":{"ha":797,"x_min":24,"x_max":772,"o":"m 24 656 l 236 656 l 438 371 l 236 86 l 24 86 l 215 371 l 24 656 m 358 656 l 571 656 l 772 371 l 571 86 l 358 86 l 550 371 l 358 656 z "},"¼":{"ha":1074,"x_min":18,"x_max":1035,"o":"m 264 375 l 135 375 l 135 828 l 18 828 l 18 939 l 264 939 l 264 375 m 297 0 l 143 0 l 676 939 l 831 939 l 297 0 m 1035 107 l 947 107 l 947 0 l 819 0 l 819 107 l 524 107 l 524 201 l 846 564 l 947 564 l 947 218 l 1035 218 l 1035 107 m 671 218 l 819 218 l 819 389 l 671 218 z "},"½":{"ha":1142,"x_min":18,"x_max":1107,"o":"m 264 375 l 135 375 l 135 828 l 18 828 l 18 939 l 264 939 l 264 375 m 297 0 l 143 0 l 676 939 l 831 939 l 297 0 m 1107 114 l 1107 0 l 671 0 l 672 72 l 863 243 q 942 323 919 293 q 965 386 965 353 q 940 438 965 417 q 872 458 914 458 q 803 437 828 458 q 778 375 778 415 l 654 375 q 718 517 654 463 q 882 572 782 572 q 1040 522 981 572 q 1099 403 1099 471 q 1068 306 1099 350 q 958 193 1038 263 l 875 114 l 1107 114 z "},"¾":{"ha":1296,"x_min":42,"x_max":1256,"o":"m 511 546 q 445 418 511 467 q 272 369 379 369 q 106 419 171 369 q 42 544 42 468 l 165 544 q 274 471 172 471 q 351 490 322 471 q 379 543 379 508 q 347 595 379 576 q 257 614 314 614 l 189 614 l 189 715 l 250 715 q 324 733 297 715 q 351 782 351 751 q 328 830 351 813 q 265 847 306 847 q 202 828 225 847 q 178 775 179 808 l 54 775 q 117 899 56 849 q 271 949 179 949 q 426 905 368 949 q 483 792 483 861 q 396 672 483 718 q 511 546 511 636 m 515 0 l 361 0 l 894 939 l 1049 939 l 515 0 m 1256 107 l 1168 107 l 1168 0 l 1042 0 l 1042 107 l 744 107 l 744 201 l 1067 564 l 1168 564 l 1168 218 l 1256 218 l 1256 107 m 892 218 l 1042 218 l 1042 389 l 892 218 z "},"¿":{"ha":719,"x_min":25,"x_max":694,"o":"m 246 621 q 284 711 246 675 q 381 747 322 747 q 478 711 439 747 q 517 621 517 675 q 478 528 517 564 q 381 492 440 492 q 284 528 322 492 q 246 621 246 565 m 514 11 l 694 11 q 593 -200 689 -118 q 353 -282 497 -282 q 116 -208 207 -282 q 25 -18 25 -135 q 150 190 25 79 l 244 278 q 304 351 290 318 q 308 439 318 385 l 433 439 q 460 311 465 368 q 399 200 454 254 l 306 111 q 253 51 268 75 q 238 -3 238 26 q 274 -81 238 -51 q 372 -111 310 -111 q 471 -78 433 -111 q 514 11 508 -44 z "},"À":{"ha":1014,"x_min":18,"x_max":996,"o":"m 604 1056 l 404 1056 l 243 1268 l 467 1268 l 604 1056 m 769 0 l 694 214 l 307 214 l 231 0 l 18 0 l 393 997 l 624 997 l 996 0 l 769 0 m 503 767 l 367 382 l 636 382 l 503 767 z "},"Á":{"ha":1014,"x_min":18,"x_max":996,"o":"m 611 1056 l 411 1056 l 550 1268 l 774 1268 l 611 1056 m 769 0 l 694 214 l 307 214 l 231 0 l 18 0 l 393 997 l 624 997 l 996 0 l 769 0 m 503 767 l 367 382 l 636 382 l 503 767 z "},"Â":{"ha":1014,"x_min":18,"x_max":996,"o":"m 410 1056 l 197 1056 l 389 1268 l 628 1268 l 818 1056 l 607 1056 l 508 1165 l 410 1056 m 769 0 l 694 214 l 307 214 l 231 0 l 18 0 l 393 997 l 624 997 l 996 0 l 769 0 m 503 767 l 367 382 l 636 382 l 503 767 z "},"Ã":{"ha":1014,"x_min":18,"x_max":996,"o":"m 369 1050 l 251 1050 q 277 1208 236 1147 q 396 1268 318 1268 q 515 1233 447 1268 q 600 1199 583 1199 q 644 1278 646 1199 l 763 1278 q 735 1122 778 1183 q 617 1061 693 1061 q 498 1095 565 1061 q 413 1129 431 1129 q 369 1050 365 1129 m 769 0 l 694 214 l 307 214 l 231 0 l 18 0 l 393 997 l 624 997 l 996 0 l 769 0 m 503 767 l 367 382 l 636 382 l 503 767 z "},"Ä":{"ha":1014,"x_min":18,"x_max":996,"o":"m 781 1167 q 747 1086 781 1118 q 663 1054 714 1054 q 577 1086 611 1054 q 543 1167 543 1118 q 576 1249 543 1218 q 663 1281 610 1281 q 747 1249 714 1281 q 781 1167 781 1217 m 472 1167 q 440 1085 472 1117 q 353 1054 407 1054 q 269 1086 303 1054 q 236 1167 236 1118 q 269 1249 236 1217 q 353 1281 303 1281 q 440 1249 407 1281 q 472 1167 472 1218 m 769 0 l 694 214 l 307 214 l 231 0 l 18 0 l 393 997 l 624 997 l 996 0 l 769 0 m 503 767 l 367 382 l 636 382 l 503 767 z "},"Å":{"ha":1014,"x_min":18,"x_max":996,"o":"m 508 1049 q 374 1099 426 1049 q 321 1219 321 1149 q 374 1342 321 1292 q 508 1393 426 1393 q 643 1342 589 1393 q 697 1219 697 1292 q 643 1099 697 1150 q 508 1049 589 1049 m 454 1165 q 465 1156 454 1165 q 508 1146 476 1146 q 562 1165 540 1146 q 583 1219 583 1183 q 562 1276 583 1256 q 508 1296 540 1296 q 454 1276 476 1296 q 432 1219 432 1256 q 454 1165 432 1185 m 769 0 l 694 214 l 307 214 l 231 0 l 18 0 l 393 997 l 624 997 l 996 0 l 769 0 m 503 767 l 367 382 l 636 382 l 503 767 z "},"Æ":{"ha":1285,"x_min":-10,"x_max":1222,"o":"m 610 214 l 328 214 l 226 0 l -10 0 l 483 997 l 1213 997 l 1213 815 l 821 815 l 821 604 l 1171 604 l 1171 422 l 821 422 l 821 182 l 1222 182 l 1222 0 l 610 0 l 610 214 m 610 382 l 610 813 l 407 382 l 610 382 z "},"Ç":{"ha":1092,"x_min":44,"x_max":1047,"o":"m 706 -157 q 658 -242 706 -208 q 536 -275 610 -275 q 413 -240 460 -275 q 358 -142 365 -206 l 476 -142 q 529 -185 485 -185 q 563 -174 550 -185 q 575 -146 575 -162 q 468 -96 575 -85 l 489 -18 q 172 149 299 3 q 44 500 44 296 q 189 868 44 718 q 544 1018 333 1018 q 881 899 742 1018 q 1047 588 1021 779 l 824 588 q 729 762 806 694 q 547 829 653 829 q 340 738 419 829 q 261 500 261 646 q 340 260 261 353 q 547 168 419 168 q 728 235 653 168 q 824 411 804 303 l 1047 411 q 894 110 1022 228 q 582 -19 767 -8 l 575 -44 q 670 -82 635 -51 q 706 -157 706 -112 z "},"È":{"ha":835,"x_min":103,"x_max":774,"o":"m 533 1056 l 333 1056 l 172 1268 l 396 1268 l 533 1056 m 774 183 l 774 0 l 103 0 l 103 997 l 764 997 l 764 814 l 314 814 l 314 604 l 722 604 l 722 422 l 314 422 l 314 183 l 774 183 z "},"É":{"ha":835,"x_min":103,"x_max":774,"o":"m 542 1056 l 340 1056 l 479 1268 l 703 1268 l 542 1056 m 774 183 l 774 0 l 103 0 l 103 997 l 764 997 l 764 814 l 314 814 l 314 604 l 722 604 l 722 422 l 314 422 l 314 183 l 774 183 z "},"Ê":{"ha":835,"x_min":103,"x_max":774,"o":"m 339 1056 l 126 1056 l 318 1268 l 557 1268 l 749 1056 l 536 1056 l 438 1165 l 339 1056 m 774 183 l 774 0 l 103 0 l 103 997 l 764 997 l 764 814 l 314 814 l 314 604 l 722 604 l 722 422 l 314 422 l 314 183 l 774 183 z "},"Ë":{"ha":835,"x_min":103,"x_max":774,"o":"m 710 1167 q 676 1086 710 1118 q 593 1054 643 1054 q 506 1086 540 1054 q 472 1167 472 1118 q 506 1249 472 1218 q 593 1281 540 1281 q 676 1249 643 1281 q 710 1167 710 1217 m 401 1167 q 369 1085 401 1117 q 282 1054 336 1054 q 199 1086 232 1054 q 165 1167 165 1118 q 199 1249 165 1217 q 282 1281 232 1281 q 369 1249 336 1281 q 401 1167 401 1218 m 774 183 l 774 0 l 103 0 l 103 997 l 764 997 l 764 814 l 314 814 l 314 604 l 722 604 l 722 422 l 314 422 l 314 183 l 774 183 z "},"Ì":{"ha":415,"x_min":-42,"x_max":314,"o":"m 306 1056 l 104 1056 l -42 1268 l 182 1268 l 306 1056 m 314 0 l 103 0 l 103 997 l 314 997 l 314 0 z "},"Í":{"ha":415,"x_min":103,"x_max":460,"o":"m 313 1056 l 113 1056 l 238 1268 l 460 1268 l 313 1056 m 314 0 l 103 0 l 103 997 l 314 997 l 314 0 z "},"Î":{"ha":415,"x_min":-86,"x_max":503,"o":"m 126 1056 l -86 1056 l 88 1268 l 332 1268 l 503 1056 l 292 1056 l 210 1165 l 126 1056 m 314 0 l 103 0 l 103 997 l 314 997 l 314 0 z "},"Ï":{"ha":415,"x_min":-50,"x_max":468,"o":"m 468 1167 q 436 1086 468 1118 q 356 1054 404 1054 q 272 1086 304 1054 q 239 1167 239 1118 q 271 1249 239 1218 q 356 1281 303 1281 q 437 1249 406 1281 q 468 1167 468 1217 m 181 1167 q 148 1086 181 1118 q 64 1054 115 1054 q -17 1086 15 1054 q -50 1167 -50 1118 q -18 1249 -50 1217 q 64 1281 14 1281 q 149 1249 117 1281 q 181 1167 181 1218 m 314 0 l 103 0 l 103 997 l 314 997 l 314 0 z "},"Ð":{"ha":1050,"x_min":8,"x_max":1007,"o":"m 499 0 l 143 0 l 143 428 l 8 428 l 8 599 l 143 599 l 143 997 l 499 997 q 870 861 733 997 q 1007 504 1007 725 q 867 142 1007 283 q 499 0 728 0 m 554 428 l 354 428 l 354 182 l 488 182 q 713 265 636 182 q 790 504 790 349 q 713 735 790 654 q 488 815 635 815 l 354 815 l 354 599 l 554 599 l 554 428 z "},"Ñ":{"ha":1063,"x_min":103,"x_max":960,"o":"m 392 1050 l 274 1050 q 299 1208 258 1147 q 418 1268 340 1268 q 538 1233 469 1268 q 622 1199 606 1199 q 667 1278 671 1199 l 786 1278 q 758 1122 800 1183 q 639 1061 717 1061 q 520 1095 588 1061 q 436 1129 453 1129 q 392 1050 390 1129 m 753 0 l 296 696 l 296 0 l 103 0 l 103 997 l 331 997 l 765 336 l 765 997 l 960 997 l 960 0 l 753 0 z "},"Ò":{"ha":1110,"x_min":44,"x_max":1067,"o":"m 651 1056 l 451 1056 l 289 1268 l 513 1268 l 651 1056 m 554 -21 q 191 128 338 -21 q 44 500 44 276 q 191 870 44 722 q 554 1018 338 1018 q 919 870 772 1018 q 1067 500 1067 722 q 919 128 1067 276 q 554 -21 772 -21 m 341 263 q 381 216 341 263 q 554 168 421 168 q 768 263 688 168 q 849 500 849 358 q 769 735 849 642 q 554 829 689 829 q 341 735 421 829 q 261 500 261 642 q 341 263 261 358 z "},"Ó":{"ha":1110,"x_min":44,"x_max":1067,"o":"m 658 1056 l 458 1056 l 597 1268 l 819 1268 l 658 1056 m 554 -21 q 191 128 338 -21 q 44 500 44 276 q 191 870 44 722 q 554 1018 338 1018 q 919 870 772 1018 q 1067 500 1067 722 q 919 128 1067 276 q 554 -21 772 -21 m 341 263 q 381 216 341 263 q 554 168 421 168 q 768 263 688 168 q 849 500 849 358 q 769 735 849 642 q 554 829 689 829 q 341 735 421 829 q 261 500 261 642 q 341 263 261 358 z "},"Ô":{"ha":1110,"x_min":44,"x_max":1067,"o":"m 457 1056 l 244 1056 l 436 1268 l 675 1268 l 865 1056 l 654 1056 l 554 1165 l 457 1056 m 554 -21 q 191 128 338 -21 q 44 500 44 276 q 191 870 44 722 q 554 1018 338 1018 q 919 870 772 1018 q 1067 500 1067 722 q 919 128 1067 276 q 554 -21 772 -21 m 341 263 q 381 216 341 263 q 554 168 421 168 q 768 263 688 168 q 849 500 849 358 q 769 735 849 642 q 554 829 689 829 q 341 735 421 829 q 261 500 261 642 q 341 263 261 358 z "},"Õ":{"ha":1110,"x_min":44,"x_max":1067,"o":"m 417 1050 l 299 1050 q 324 1207 282 1146 q 442 1268 365 1268 q 562 1233 494 1268 q 646 1199 629 1199 q 692 1278 693 1199 l 810 1278 q 782 1122 824 1183 q 664 1061 740 1061 q 545 1095 613 1061 q 460 1129 478 1129 q 417 1050 413 1129 m 554 -21 q 191 128 338 -21 q 44 500 44 276 q 191 870 44 722 q 554 1018 338 1018 q 919 870 772 1018 q 1067 500 1067 722 q 919 128 1067 276 q 554 -21 772 -21 m 341 263 q 381 216 341 263 q 554 168 421 168 q 768 263 688 168 q 849 500 849 358 q 769 735 849 642 q 554 829 689 829 q 341 735 421 829 q 261 500 261 642 q 341 263 261 358 z "},"Ö":{"ha":1110,"x_min":44,"x_max":1067,"o":"m 826 1167 q 793 1086 826 1118 q 710 1054 760 1054 q 624 1086 658 1054 q 590 1167 590 1118 q 624 1249 590 1218 q 710 1281 657 1281 q 793 1249 760 1281 q 826 1167 826 1217 m 519 1167 q 486 1086 519 1118 q 400 1054 453 1054 q 315 1086 349 1054 q 282 1167 282 1118 q 315 1249 282 1217 q 400 1281 349 1281 q 486 1249 453 1281 q 519 1167 519 1218 m 554 -21 q 191 128 338 -21 q 44 500 44 276 q 191 870 44 722 q 554 1018 338 1018 q 919 870 772 1018 q 1067 500 1067 722 q 919 128 1067 276 q 554 -21 772 -21 m 341 263 q 381 216 341 263 q 554 168 421 168 q 768 263 688 168 q 849 500 849 358 q 769 735 849 642 q 554 829 689 829 q 341 735 421 829 q 261 500 261 642 q 341 263 261 358 z "},"×":{"ha":917,"x_min":126,"x_max":790,"o":"m 238 138 l 126 251 l 344 469 l 126 689 l 238 803 l 457 582 l 675 801 l 790 690 l 569 469 l 789 251 l 675 139 l 457 357 l 238 138 z "},"Ø":{"ha":1110,"x_min":44,"x_max":1067,"o":"m 263 0 l 74 0 l 181 139 q 44 500 44 286 q 191 870 44 722 q 554 1018 338 1018 q 813 951 696 1018 l 849 997 l 1036 997 l 929 860 q 1067 500 1067 714 q 919 128 1067 276 q 554 -21 772 -21 q 299 46 413 -21 l 263 0 m 261 500 q 311 306 261 390 l 692 796 q 554 829 629 829 q 341 735 421 829 q 261 500 261 642 m 554 168 q 768 263 688 168 q 849 500 849 358 q 800 692 849 611 l 418 201 q 554 168 476 168 z "},"Ù":{"ha":1019,"x_min":100,"x_max":921,"o":"m 607 1056 l 407 1056 l 244 1268 l 468 1268 l 607 1056 m 921 997 l 921 379 q 812 89 921 199 q 511 -21 703 -21 q 208 89 317 -21 q 100 379 100 199 l 100 997 l 311 997 l 311 375 q 360 223 311 278 q 511 168 410 168 q 660 223 611 168 q 710 375 710 278 l 710 997 l 921 997 z "},"Ú":{"ha":1019,"x_min":100,"x_max":921,"o":"m 614 1056 l 414 1056 l 553 1268 l 775 1268 l 614 1056 m 921 997 l 921 379 q 812 89 921 199 q 511 -21 703 -21 q 208 89 317 -21 q 100 379 100 199 l 100 997 l 311 997 l 311 375 q 360 223 311 278 q 511 168 410 168 q 660 223 611 168 q 710 375 710 278 l 710 997 l 921 997 z "},"Û":{"ha":1019,"x_min":100,"x_max":921,"o":"m 413 1056 l 200 1056 l 392 1268 l 631 1268 l 821 1056 l 610 1056 l 511 1165 l 413 1056 m 921 997 l 921 379 q 812 89 921 199 q 511 -21 703 -21 q 208 89 317 -21 q 100 379 100 199 l 100 997 l 311 997 l 311 375 q 360 223 311 278 q 511 168 410 168 q 660 223 611 168 q 710 375 710 278 l 710 997 l 921 997 z "},"Ü":{"ha":1019,"x_min":100,"x_max":921,"o":"m 783 1167 q 750 1086 783 1118 q 665 1054 717 1054 q 580 1086 614 1054 q 546 1167 546 1118 q 579 1249 546 1218 q 665 1281 613 1281 q 750 1249 717 1281 q 783 1167 783 1217 m 475 1167 q 442 1086 475 1118 q 356 1054 408 1054 q 272 1086 306 1054 q 239 1167 239 1118 q 272 1249 239 1217 q 356 1281 306 1281 q 442 1249 408 1281 q 475 1167 475 1218 m 921 997 l 921 379 q 812 89 921 199 q 511 -21 703 -21 q 208 89 317 -21 q 100 379 100 199 l 100 997 l 311 997 l 311 375 q 360 223 311 278 q 511 168 410 168 q 660 223 611 168 q 710 375 710 278 l 710 997 l 921 997 z "},"Ý":{"ha":936,"x_min":8,"x_max":928,"o":"m 578 1056 l 378 1056 l 517 1268 l 739 1268 l 578 1056 m 572 375 l 572 0 l 361 0 l 361 375 l 8 997 l 236 997 l 474 568 l 715 997 l 928 997 l 572 375 z "},"Þ":{"ha":899,"x_min":103,"x_max":858,"o":"m 464 165 l 314 165 l 314 0 l 103 0 l 103 997 l 314 997 l 314 839 l 464 839 q 753 753 649 839 q 858 507 858 667 q 753 255 858 344 q 464 165 647 165 m 463 661 l 314 661 l 314 343 l 463 343 q 600 386 551 343 q 649 504 649 429 q 600 620 649 579 q 463 661 551 661 z "},"ß":{"ha":883,"x_min":7,"x_max":849,"o":"m 849 290 q 761 66 849 146 q 517 -14 674 -14 q 429 -4 458 -14 l 429 147 q 503 140 469 140 q 613 180 572 140 q 653 288 653 219 q 606 397 653 357 q 478 436 560 436 l 429 436 l 429 592 l 463 592 q 566 631 526 592 q 606 733 606 669 q 572 824 606 790 q 481 858 538 858 q 384 819 419 858 q 349 711 349 779 l 349 0 l 157 0 l 157 576 l 7 576 l 7 742 l 158 742 q 260 935 174 858 q 483 1011 346 1011 q 716 935 631 1011 q 801 747 801 860 q 764 622 801 678 q 663 536 726 567 q 799 445 750 510 q 849 290 849 381 z "},"à":{"ha":765,"x_min":47,"x_max":685,"o":"m 478 801 l 276 801 l 115 1013 l 339 1013 l 478 801 m 528 0 l 528 92 q 304 -14 454 -14 q 118 49 189 -14 q 47 215 47 111 q 133 381 47 324 q 381 438 218 438 q 504 429 436 438 l 504 474 q 471 571 504 536 q 376 606 438 606 q 278 571 314 606 q 236 474 242 536 l 63 474 q 156 678 71 601 q 376 756 242 756 q 603 679 522 756 q 685 467 685 603 l 685 0 l 528 0 m 229 221 q 260 147 229 174 q 346 119 292 119 q 462 157 419 119 q 504 260 504 194 l 504 313 q 393 322 440 322 q 229 221 229 322 z "},"á":{"ha":765,"x_min":47,"x_max":685,"o":"m 485 801 l 283 801 l 424 1013 l 646 1013 l 485 801 m 528 0 l 528 92 q 304 -14 454 -14 q 118 49 189 -14 q 47 215 47 111 q 133 381 47 324 q 381 438 218 438 q 504 429 436 438 l 504 474 q 471 571 504 536 q 376 606 438 606 q 278 571 314 606 q 236 474 242 536 l 63 474 q 156 678 71 601 q 376 756 242 756 q 603 679 522 756 q 685 467 685 603 l 685 0 l 528 0 m 229 221 q 260 147 229 174 q 346 119 292 119 q 462 157 419 119 q 504 260 504 194 l 504 313 q 393 322 440 322 q 229 221 229 322 z "},"â":{"ha":765,"x_min":47,"x_max":692,"o":"m 282 801 l 69 801 l 261 1013 l 500 1013 l 692 801 l 481 801 l 381 911 l 282 801 m 528 0 l 528 92 q 304 -14 454 -14 q 118 49 189 -14 q 47 215 47 111 q 133 381 47 324 q 381 438 218 438 q 504 429 436 438 l 504 474 q 471 571 504 536 q 376 606 438 606 q 278 571 314 606 q 236 474 242 536 l 63 474 q 156 678 71 601 q 376 756 242 756 q 603 679 522 756 q 685 467 685 603 l 685 0 l 528 0 m 229 221 q 260 147 229 174 q 346 119 292 119 q 462 157 419 119 q 504 260 504 194 l 504 313 q 393 322 440 322 q 229 221 229 322 z "},"ã":{"ha":765,"x_min":47,"x_max":685,"o":"m 242 796 l 124 796 q 150 952 108 892 q 268 1013 192 1013 q 388 978 319 1013 q 472 944 456 944 q 517 1022 521 944 l 635 1022 q 608 867 650 928 q 489 806 565 806 q 370 840 438 806 q 286 874 303 874 q 242 796 238 874 m 528 0 l 528 92 q 304 -14 454 -14 q 118 49 189 -14 q 47 215 47 111 q 133 381 47 324 q 381 438 218 438 q 504 429 436 438 l 504 474 q 471 571 504 536 q 376 606 438 606 q 278 571 314 606 q 236 474 242 536 l 63 474 q 156 678 71 601 q 376 756 242 756 q 603 679 522 756 q 685 467 685 603 l 685 0 l 528 0 m 229 221 q 260 147 229 174 q 346 119 292 119 q 462 157 419 119 q 504 260 504 194 l 504 313 q 393 322 440 322 q 229 221 229 322 z "},"ä":{"ha":765,"x_min":47,"x_max":685,"o":"m 653 911 q 619 831 653 863 q 536 800 586 800 q 450 831 483 800 q 417 911 417 863 q 450 994 417 963 q 536 1025 483 1025 q 619 993 586 1025 q 653 911 653 961 m 344 911 q 312 831 344 863 q 225 800 279 800 q 142 831 175 800 q 108 911 108 863 q 142 993 108 961 q 225 1025 175 1025 q 312 994 279 1025 q 344 911 344 963 m 528 0 l 528 92 q 304 -14 454 -14 q 118 49 189 -14 q 47 215 47 111 q 133 381 47 324 q 381 438 218 438 q 504 429 436 438 l 504 474 q 471 571 504 536 q 376 606 438 606 q 278 571 314 606 q 236 474 242 536 l 63 474 q 156 678 71 601 q 376 756 242 756 q 603 679 522 756 q 685 467 685 603 l 685 0 l 528 0 m 229 221 q 260 147 229 174 q 346 119 292 119 q 462 157 419 119 q 504 260 504 194 l 504 313 q 393 322 440 322 q 229 221 229 322 z "},"å":{"ha":765,"x_min":47,"x_max":685,"o":"m 381 794 q 246 844 299 794 q 193 965 193 894 q 246 1088 193 1038 q 381 1138 299 1138 q 515 1088 461 1138 q 569 965 569 1038 q 515 844 569 894 q 381 794 461 794 m 381 892 q 435 910 414 892 q 456 965 456 929 q 435 1021 456 1001 q 381 1040 414 1040 q 326 1021 349 1040 q 304 965 304 1001 q 326 910 304 929 q 381 892 349 892 m 528 0 l 528 92 q 304 -14 454 -14 q 118 49 189 -14 q 47 215 47 111 q 133 381 47 324 q 381 438 218 438 q 504 429 436 438 l 504 474 q 471 571 504 536 q 376 606 438 606 q 278 571 314 606 q 236 474 242 536 l 63 474 q 156 678 71 601 q 376 756 242 756 q 603 679 522 756 q 685 467 685 603 l 685 0 l 528 0 m 229 221 q 260 147 229 174 q 346 119 292 119 q 462 157 419 119 q 504 260 504 194 l 504 313 q 393 322 440 322 q 229 221 229 322 z "},"æ":{"ha":1221,"x_min":47,"x_max":1178,"o":"m 47 214 q 133 378 47 321 q 378 436 218 436 q 504 429 453 436 l 504 472 q 470 571 504 536 q 375 606 436 606 q 276 571 314 606 q 238 474 239 536 l 64 474 q 158 676 71 596 q 374 756 244 756 q 610 646 542 756 q 847 756 699 756 q 1107 638 1015 756 q 1178 326 1199 519 l 679 326 q 840 138 683 138 q 982 251 963 138 l 1176 251 q 1063 57 1150 126 q 849 -12 976 -12 q 575 136 663 -12 q 314 -14 494 -14 q 121 49 194 -14 q 47 214 47 113 m 835 614 q 731 571 772 614 q 683 449 689 528 l 981 449 q 940 571 978 528 q 835 614 903 614 m 229 219 q 260 147 229 174 q 346 119 292 119 q 461 160 418 119 q 504 271 504 201 l 504 313 q 389 319 460 319 q 229 219 229 319 z "},"ç":{"ha":796,"x_min":38,"x_max":758,"o":"m 557 -157 q 509 -242 557 -208 q 388 -275 461 -275 q 264 -240 311 -275 q 208 -142 217 -206 l 328 -142 q 381 -185 336 -185 q 414 -174 401 -185 q 426 -146 426 -162 q 319 -96 426 -85 l 342 -10 q 121 113 204 10 q 38 371 38 217 q 140 647 38 538 q 399 756 242 756 q 642 665 543 756 q 758 425 740 575 l 556 425 q 506 542 549 499 q 399 585 464 585 q 279 527 324 585 q 235 371 235 469 q 278 214 235 271 q 399 157 322 157 q 506 199 465 157 q 556 317 547 240 l 758 317 q 657 86 743 174 q 436 -12 571 -1 l 426 -44 q 521 -82 485 -51 q 557 -157 557 -112 z "},"è":{"ha":804,"x_min":38,"x_max":761,"o":"m 493 801 l 293 801 l 132 1013 l 356 1013 l 493 801 m 408 -12 q 140 94 242 -12 q 38 374 38 200 q 142 647 38 539 q 406 756 246 756 q 685 631 582 756 q 761 324 788 506 l 235 324 q 404 136 254 136 q 568 251 533 136 l 760 251 q 637 56 729 125 q 408 -12 544 -12 m 401 614 q 238 446 263 614 l 557 446 q 511 569 553 524 q 401 614 469 614 z "},"é":{"ha":804,"x_min":38,"x_max":761,"o":"m 500 801 l 300 801 l 439 1013 l 663 1013 l 500 801 m 408 -12 q 140 94 242 -12 q 38 374 38 200 q 142 647 38 539 q 406 756 246 756 q 685 631 582 756 q 761 324 788 506 l 235 324 q 404 136 254 136 q 568 251 533 136 l 760 251 q 637 56 729 125 q 408 -12 544 -12 m 401 614 q 238 446 263 614 l 557 446 q 511 569 553 524 q 401 614 469 614 z "},"ê":{"ha":804,"x_min":38,"x_max":761,"o":"m 299 801 l 86 801 l 278 1013 l 517 1013 l 707 801 l 496 801 l 397 911 l 299 801 m 408 -12 q 140 94 242 -12 q 38 374 38 200 q 142 647 38 539 q 406 756 246 756 q 685 631 582 756 q 761 324 788 506 l 235 324 q 404 136 254 136 q 568 251 533 136 l 760 251 q 637 56 729 125 q 408 -12 544 -12 m 401 614 q 238 446 263 614 l 557 446 q 511 569 553 524 q 401 614 469 614 z "},"ë":{"ha":804,"x_min":38,"x_max":761,"o":"m 669 911 q 636 831 669 863 q 551 800 603 800 q 465 831 499 800 q 432 911 432 863 q 465 994 432 963 q 551 1025 499 1025 q 636 993 603 1025 q 669 911 669 961 m 361 911 q 328 831 361 863 q 242 800 296 800 q 158 831 192 800 q 125 911 125 863 q 158 993 125 961 q 242 1025 192 1025 q 328 994 296 1025 q 361 911 361 963 m 408 -12 q 140 94 242 -12 q 38 374 38 200 q 142 647 38 539 q 406 756 246 756 q 685 631 582 756 q 761 324 788 506 l 235 324 q 404 136 254 136 q 568 251 533 136 l 760 251 q 637 56 729 125 q 408 -12 544 -12 m 401 614 q 238 446 263 614 l 557 446 q 511 569 553 524 q 401 614 469 614 z "},"ì":{"ha":365,"x_min":-68,"x_max":279,"o":"m 279 801 l 76 801 l -68 1013 l 154 1013 l 279 801 m 279 0 l 86 0 l 86 742 l 279 742 l 279 0 z "},"í":{"ha":365,"x_min":85,"x_max":432,"o":"m 286 801 l 85 801 l 211 1013 l 432 1013 l 286 801 m 279 0 l 86 0 l 86 742 l 279 742 l 279 0 z "},"î":{"ha":365,"x_min":-114,"x_max":476,"o":"m 99 801 l -114 801 l 60 1013 l 304 1013 l 476 801 l 265 801 l 182 911 l 99 801 m 279 0 l 86 0 l 86 742 l 279 742 l 279 0 z "},"ï":{"ha":365,"x_min":-76,"x_max":440,"o":"m 440 911 q 408 831 440 863 q 328 800 376 800 q 244 831 276 800 q 211 911 211 863 q 243 994 211 963 q 328 1025 275 1025 q 409 993 378 1025 q 440 911 440 961 m 153 911 q 121 831 153 861 q 36 800 89 800 q -44 831 -12 800 q -76 911 -76 863 q -45 993 -76 961 q 36 1025 -14 1025 q 121 994 89 1025 q 153 911 153 963 m 279 0 l 86 0 l 86 742 l 279 742 l 279 0 z "},"ð":{"ha":818,"x_min":38,"x_max":781,"o":"m 38 367 q 131 628 38 526 q 381 729 224 729 q 438 717 414 729 l 365 810 l 182 757 l 182 882 l 285 915 l 222 997 l 439 997 l 468 961 l 664 1015 l 664 890 l 549 854 l 656 714 q 753 547 725 624 q 781 363 781 471 q 675 98 781 210 q 410 -14 569 -14 q 142 96 247 -14 q 38 367 38 206 m 235 368 q 285 214 235 269 q 408 158 335 158 q 531 213 482 158 q 581 365 581 268 q 531 524 581 467 q 408 581 482 581 q 284 524 333 581 q 235 368 235 468 z "},"ñ":{"ha":824,"x_min":86,"x_max":743,"o":"m 274 796 l 156 796 q 182 952 140 892 q 300 1013 224 1013 q 419 978 351 1013 q 504 944 488 944 q 549 1022 550 944 l 667 1022 q 640 867 682 928 q 521 806 597 806 q 402 840 469 806 q 318 874 335 874 q 274 796 269 874 m 279 404 l 279 0 l 86 0 l 86 742 l 264 742 l 264 636 q 492 756 351 756 q 674 683 606 756 q 743 479 743 611 l 743 0 l 551 0 l 551 414 q 421 585 551 585 q 319 538 360 585 q 279 404 279 490 z "},"ò":{"ha":828,"x_min":38,"x_max":790,"o":"m 511 801 l 310 801 l 149 1013 l 372 1013 l 511 801 m 683 97 q 629 42 683 97 q 414 -14 575 -14 q 145 97 253 -14 q 38 371 38 208 q 145 644 38 533 q 414 756 253 756 q 683 644 575 756 q 790 371 790 533 q 683 97 790 208 m 288 214 q 313 185 288 214 q 414 157 339 157 q 540 214 489 157 q 592 371 592 271 q 540 526 592 469 q 414 583 489 583 q 288 526 339 583 q 236 371 236 469 q 288 214 236 271 z "},"ó":{"ha":828,"x_min":38,"x_max":790,"o":"m 518 801 l 317 801 l 457 1013 l 679 1013 l 518 801 m 683 97 q 629 42 683 97 q 414 -14 575 -14 q 145 97 253 -14 q 38 371 38 208 q 145 644 38 533 q 414 756 253 756 q 683 644 575 756 q 790 371 790 533 q 683 97 790 208 m 288 214 q 313 185 288 214 q 414 157 339 157 q 540 214 489 157 q 592 371 592 271 q 540 526 592 469 q 414 583 489 583 q 288 526 339 583 q 236 371 236 469 q 288 214 236 271 z "},"ô":{"ha":828,"x_min":38,"x_max":790,"o":"m 315 801 l 103 801 l 296 1013 l 533 1013 l 725 801 l 514 801 l 414 911 l 315 801 m 683 97 q 629 42 683 97 q 414 -14 575 -14 q 145 97 253 -14 q 38 371 38 208 q 145 644 38 533 q 414 756 253 756 q 683 644 575 756 q 790 371 790 533 q 683 97 790 208 m 288 214 q 313 185 288 214 q 414 157 339 157 q 540 214 489 157 q 592 371 592 271 q 540 526 592 469 q 414 583 489 583 q 288 526 339 583 q 236 371 236 469 q 288 214 236 271 z "},"õ":{"ha":828,"x_min":38,"x_max":790,"o":"m 275 796 l 157 796 q 183 952 142 892 q 301 1013 225 1013 q 421 978 353 1013 q 506 944 489 944 q 550 1022 554 944 l 668 1022 q 641 867 683 928 q 522 806 599 806 q 403 840 471 806 q 319 874 336 874 q 275 796 274 874 m 683 97 q 629 42 683 97 q 414 -14 575 -14 q 145 97 253 -14 q 38 371 38 208 q 145 644 38 533 q 414 756 253 756 q 683 644 575 756 q 790 371 790 533 q 683 97 790 208 m 288 214 q 313 185 288 214 q 414 157 339 157 q 540 214 489 157 q 592 371 592 271 q 540 526 592 469 q 414 583 489 583 q 288 526 339 583 q 236 371 236 469 q 288 214 236 271 z "},"ö":{"ha":828,"x_min":38,"x_max":790,"o":"m 686 911 q 653 831 686 863 q 569 800 619 800 q 483 831 517 800 q 450 911 450 863 q 483 994 450 963 q 569 1025 517 1025 q 653 993 619 1025 q 686 911 686 961 m 378 911 q 345 831 378 863 q 260 800 313 800 q 175 831 208 800 q 142 911 142 863 q 175 993 142 961 q 260 1025 208 1025 q 345 994 313 1025 q 378 911 378 963 m 683 97 q 629 42 683 97 q 414 -14 575 -14 q 145 97 253 -14 q 38 371 38 208 q 145 644 38 533 q 414 756 253 756 q 683 644 575 756 q 790 371 790 533 q 683 97 790 208 m 288 214 q 313 185 288 214 q 414 157 339 157 q 540 214 489 157 q 592 371 592 271 q 540 526 592 469 q 414 583 489 583 q 288 526 339 583 q 236 371 236 469 q 288 214 236 271 z "},"÷":{"ha":917,"x_min":111,"x_max":806,"o":"m 588 738 q 551 644 588 681 q 458 607 515 607 q 365 644 401 607 q 328 738 328 681 q 365 833 328 796 q 458 869 401 869 q 551 833 515 869 q 588 738 588 796 m 806 390 l 111 390 l 111 557 l 806 557 l 806 390 m 588 214 q 551 120 588 157 q 458 83 515 83 q 365 120 401 83 q 328 214 328 157 q 365 309 328 272 q 458 346 401 346 q 551 309 515 346 q 588 214 588 272 z "},"ø":{"ha":828,"x_min":38,"x_max":790,"o":"m 213 0 l 67 0 l 142 101 q 38 371 38 213 q 145 644 38 533 q 414 756 253 756 q 594 711 514 756 l 617 742 l 764 742 l 688 639 q 790 371 790 529 q 683 97 790 208 q 414 -14 575 -14 q 235 31 315 -14 l 213 0 m 236 371 q 258 258 236 310 l 488 567 q 414 583 454 583 q 288 526 339 583 q 236 371 236 469 m 414 157 q 540 214 489 157 q 592 371 592 271 q 569 481 592 432 l 342 174 q 414 157 375 157 z "},"ù":{"ha":817,"x_min":79,"x_max":729,"o":"m 504 801 l 304 801 l 142 1013 l 365 1013 l 504 801 m 538 313 l 538 742 l 729 742 l 729 0 l 553 0 l 553 97 q 464 17 522 47 q 336 -14 406 -14 q 149 58 219 -14 q 79 269 79 129 l 79 742 l 272 742 l 272 307 q 401 157 272 157 q 497 199 457 157 q 538 313 538 240 z "},"ú":{"ha":817,"x_min":79,"x_max":729,"o":"m 511 801 l 311 801 l 450 1013 l 672 1013 l 511 801 m 538 313 l 538 742 l 729 742 l 729 0 l 553 0 l 553 97 q 464 17 522 47 q 336 -14 406 -14 q 149 58 219 -14 q 79 269 79 129 l 79 742 l 272 742 l 272 307 q 401 157 272 157 q 497 199 457 157 q 538 313 538 240 z "},"û":{"ha":817,"x_min":79,"x_max":729,"o":"m 310 801 l 97 801 l 289 1013 l 526 1013 l 718 801 l 507 801 l 407 911 l 310 801 m 538 313 l 538 742 l 729 742 l 729 0 l 553 0 l 553 97 q 464 17 522 47 q 336 -14 406 -14 q 149 58 219 -14 q 79 269 79 129 l 79 742 l 272 742 l 272 307 q 401 157 272 157 q 497 199 457 157 q 538 313 538 240 z "},"ü":{"ha":817,"x_min":79,"x_max":729,"o":"m 679 911 q 646 831 679 863 q 563 800 613 800 q 476 831 510 800 q 443 911 443 863 q 476 994 443 963 q 563 1025 510 1025 q 646 993 613 1025 q 679 911 679 961 m 372 911 q 339 831 372 863 q 253 800 306 800 q 168 831 201 800 q 135 911 135 863 q 168 993 135 961 q 253 1025 201 1025 q 339 994 306 1025 q 372 911 372 963 m 538 313 l 538 742 l 729 742 l 729 0 l 553 0 l 553 97 q 464 17 522 47 q 336 -14 406 -14 q 149 58 219 -14 q 79 269 79 129 l 79 742 l 272 742 l 272 307 q 401 157 272 157 q 497 199 457 157 q 538 313 538 240 z "},"ý":{"ha":753,"x_min":-3,"x_max":754,"o":"m 481 801 l 281 801 l 419 1013 l 642 1013 l 481 801 m 754 742 l 393 -268 l 183 -268 l 289 8 l -3 742 l 206 742 l 392 233 l 561 742 l 754 742 z "},"þ":{"ha":864,"x_min":86,"x_max":826,"o":"m 735 647 q 781 592 735 647 q 826 371 826 538 q 735 95 826 204 q 497 -14 644 -14 q 279 96 364 -14 l 279 -268 l 86 -268 l 86 997 l 279 997 l 279 647 q 497 756 364 756 q 735 647 644 756 m 628 371 q 578 528 628 471 q 454 585 528 585 q 330 528 379 585 q 281 371 281 472 q 330 214 281 269 q 454 158 379 158 q 578 214 529 158 q 628 371 628 269 z "},"ÿ":{"ha":753,"x_min":-3,"x_max":754,"o":"m 650 911 q 617 831 650 863 q 532 800 583 800 q 446 831 479 800 q 413 911 413 863 q 446 994 413 963 q 532 1025 479 1025 q 617 993 583 1025 q 650 911 650 961 m 342 911 q 308 831 342 863 q 222 800 275 800 q 139 831 172 800 q 106 911 106 863 q 139 993 106 961 q 222 1025 172 1025 q 308 994 275 1025 q 342 911 342 963 m 754 742 l 393 -268 l 183 -268 l 289 8 l -3 742 l 206 742 l 392 233 l 561 742 l 754 742 z "},"Ā":{"ha":1014,"x_min":18,"x_max":996,"o":"m 736 1074 l 281 1074 l 281 1199 l 736 1199 l 736 1074 m 769 0 l 694 214 l 307 214 l 231 0 l 18 0 l 393 997 l 624 997 l 996 0 l 769 0 m 503 767 l 367 382 l 636 382 l 503 767 z "},"ā":{"ha":765,"x_min":47,"x_max":685,"o":"m 608 818 l 153 818 l 153 944 l 608 944 l 608 818 m 528 0 l 528 92 q 304 -14 454 -14 q 118 49 189 -14 q 47 215 47 111 q 133 381 47 324 q 381 438 218 438 q 504 429 436 438 l 504 474 q 471 571 504 536 q 376 606 438 606 q 278 571 314 606 q 236 474 242 536 l 63 474 q 156 678 71 601 q 376 756 242 756 q 603 679 522 756 q 685 467 685 603 l 685 0 l 528 0 m 229 221 q 260 147 229 174 q 346 119 292 119 q 462 157 419 119 q 504 260 504 194 l 504 313 q 393 322 440 322 q 229 221 229 322 z "},"Ă":{"ha":1014,"x_min":18,"x_max":996,"o":"m 613 1268 l 749 1268 q 684 1109 749 1168 q 508 1050 619 1050 q 331 1109 396 1050 q 267 1268 267 1168 l 403 1268 q 431 1198 403 1224 q 508 1172 460 1172 q 585 1198 557 1172 q 613 1268 613 1224 m 769 0 l 694 214 l 307 214 l 231 0 l 18 0 l 393 997 l 624 997 l 996 0 l 769 0 m 503 767 l 367 382 l 636 382 l 503 767 z "},"ă":{"ha":765,"x_min":47,"x_max":685,"o":"m 485 1013 l 621 1013 q 556 853 621 913 q 381 794 492 794 q 203 853 268 794 q 139 1013 139 913 l 276 1013 q 304 942 276 968 q 381 917 332 917 q 457 942 429 917 q 485 1013 485 968 m 528 0 l 528 92 q 304 -14 454 -14 q 118 49 189 -14 q 47 215 47 111 q 133 381 47 324 q 381 438 218 438 q 504 429 436 438 l 504 474 q 471 571 504 536 q 376 606 438 606 q 278 571 314 606 q 236 474 242 536 l 63 474 q 156 678 71 601 q 376 756 242 756 q 603 679 522 756 q 685 467 685 603 l 685 0 l 528 0 m 229 221 q 260 147 229 174 q 346 119 292 119 q 462 157 419 119 q 504 260 504 194 l 504 313 q 393 322 440 322 q 229 221 229 322 z "},"Ą":{"ha":1014,"x_min":18,"x_max":996,"o":"m 925 -132 l 925 -260 q 833 -274 882 -274 q 715 -237 761 -274 q 669 -132 669 -200 q 760 29 669 -54 l 694 214 l 307 214 l 231 0 l 18 0 l 393 997 l 624 997 l 996 0 l 851 0 q 818 -78 818 -37 q 835 -125 818 -108 q 879 -142 851 -142 q 925 -132 901 -142 m 503 767 l 367 382 l 636 382 l 503 767 z "},"ą":{"ha":765,"x_min":47,"x_max":685,"o":"m 685 -132 l 685 -260 q 593 -274 639 -274 q 474 -237 521 -274 q 428 -132 428 -200 q 528 39 428 -53 l 528 92 q 304 -14 454 -14 q 118 49 189 -14 q 47 215 47 111 q 133 381 47 324 q 381 438 218 438 q 504 429 436 438 l 504 474 q 471 571 504 536 q 376 606 438 606 q 278 571 314 606 q 236 474 242 536 l 63 474 q 156 678 71 601 q 376 756 242 756 q 603 679 522 756 q 685 467 685 603 l 685 0 l 611 0 q 578 -78 578 -37 q 594 -125 578 -108 q 638 -142 610 -142 q 685 -132 661 -142 m 229 221 q 260 147 229 174 q 346 119 292 119 q 462 157 419 119 q 504 260 504 194 l 504 313 q 393 322 440 322 q 229 221 229 322 z "},"Ć":{"ha":1092,"x_min":44,"x_max":1047,"o":"m 649 1056 l 449 1056 l 588 1268 l 810 1268 l 649 1056 m 544 -21 q 189 130 333 -21 q 44 500 44 281 q 189 868 44 718 q 544 1018 333 1018 q 881 899 742 1018 q 1047 588 1021 779 l 824 588 q 729 762 806 694 q 547 829 653 829 q 340 738 419 829 q 261 500 261 646 q 340 260 261 353 q 547 168 419 168 q 728 235 653 168 q 824 411 804 303 l 1047 411 q 881 99 1021 218 q 544 -21 742 -21 z "},"ć":{"ha":796,"x_min":38,"x_max":758,"o":"m 500 801 l 300 801 l 439 1013 l 661 1013 l 500 801 m 399 -14 q 138 94 239 -14 q 38 371 38 201 q 140 647 38 538 q 399 756 242 756 q 642 665 543 756 q 758 425 740 575 l 556 425 q 506 542 549 499 q 399 585 464 585 q 279 527 324 585 q 235 371 235 469 q 278 214 235 271 q 399 157 322 157 q 506 199 465 157 q 556 317 547 240 l 758 317 q 644 75 742 164 q 399 -14 547 -14 z "},"Č":{"ha":1092,"x_min":44,"x_max":1047,"o":"m 665 1056 l 426 1056 l 235 1268 l 447 1268 l 544 1158 l 644 1268 l 856 1268 l 665 1056 m 544 -21 q 189 130 333 -21 q 44 500 44 281 q 189 868 44 718 q 544 1018 333 1018 q 881 899 742 1018 q 1047 588 1021 779 l 824 588 q 729 762 806 694 q 547 829 653 829 q 340 738 419 829 q 261 500 261 646 q 340 260 261 353 q 547 168 419 168 q 728 235 653 168 q 824 411 804 303 l 1047 411 q 881 99 1021 218 q 544 -21 742 -21 z "},"č":{"ha":796,"x_min":38,"x_max":758,"o":"m 515 801 l 278 801 l 86 1013 l 299 1013 l 396 903 l 496 1013 l 707 1013 l 515 801 m 399 -14 q 138 94 239 -14 q 38 371 38 201 q 140 647 38 538 q 399 756 242 756 q 642 665 543 756 q 758 425 740 575 l 556 425 q 506 542 549 499 q 399 585 464 585 q 279 527 324 585 q 235 371 235 469 q 278 214 235 271 q 399 157 322 157 q 506 199 465 157 q 556 317 547 240 l 758 317 q 644 75 742 164 q 399 -14 547 -14 z "},"Ď":{"ha":1010,"x_min":103,"x_max":965,"o":"m 622 1056 l 383 1056 l 192 1268 l 404 1268 l 503 1158 l 601 1268 l 814 1268 l 622 1056 m 457 0 l 103 0 l 103 997 l 457 997 q 828 861 692 997 q 965 504 965 725 q 826 142 965 283 q 457 0 686 0 m 314 815 l 314 182 l 446 182 q 672 265 594 182 q 749 504 749 349 q 672 735 749 654 q 446 815 594 815 l 314 815 z "},"ď":{"ha":864,"x_min":38,"x_max":983,"o":"m 38 371 q 128 647 38 538 q 367 756 219 756 q 586 646 500 756 l 586 997 l 778 997 l 778 0 l 601 0 l 601 107 q 367 -14 511 -14 q 128 96 219 -14 q 38 371 38 206 m 950 783 l 824 783 l 824 997 l 983 997 l 950 783 m 236 371 q 285 215 236 271 q 410 158 335 158 q 535 215 485 158 q 585 374 585 272 q 535 530 585 475 q 410 585 485 585 q 285 528 335 585 q 236 371 236 472 z "},"Đ":{"ha":1050,"x_min":8,"x_max":1007,"o":"m 499 0 l 143 0 l 143 428 l 8 428 l 8 599 l 143 599 l 143 997 l 499 997 q 870 861 733 997 q 1007 504 1007 725 q 867 142 1007 283 q 499 0 728 0 m 554 428 l 354 428 l 354 182 l 488 182 q 713 265 636 182 q 790 504 790 349 q 713 735 790 654 q 488 815 635 815 l 354 815 l 354 599 l 554 599 l 554 428 z "},"đ":{"ha":864,"x_min":38,"x_max":885,"o":"m 38 371 q 128 647 38 538 q 367 756 219 756 q 586 646 500 756 l 586 817 l 386 817 l 386 942 l 586 942 l 586 997 l 778 997 l 778 942 l 885 942 l 885 817 l 778 817 l 778 0 l 601 0 l 601 107 q 367 -14 511 -14 q 128 96 219 -14 q 38 371 38 206 m 236 371 q 285 215 236 271 q 410 158 335 158 q 535 215 485 158 q 585 374 585 272 q 535 530 585 475 q 410 585 485 585 q 285 528 335 585 q 236 371 236 472 z "},"Ē":{"ha":835,"x_min":103,"x_max":774,"o":"m 665 1074 l 210 1074 l 210 1199 l 665 1199 l 665 1074 m 774 183 l 774 0 l 103 0 l 103 997 l 764 997 l 764 814 l 314 814 l 314 604 l 722 604 l 722 422 l 314 422 l 314 183 l 774 183 z "},"ē":{"ha":804,"x_min":38,"x_max":761,"o":"m 625 818 l 169 818 l 169 944 l 625 944 l 625 818 m 408 -12 q 140 94 242 -12 q 38 374 38 200 q 142 647 38 539 q 406 756 246 756 q 685 631 582 756 q 761 324 788 506 l 235 324 q 404 136 254 136 q 568 251 533 136 l 760 251 q 637 56 729 125 q 408 -12 544 -12 m 401 614 q 238 446 263 614 l 557 446 q 511 569 553 524 q 401 614 469 614 z "},"Ė":{"ha":835,"x_min":103,"x_max":774,"o":"m 529 1252 q 547 1236 529 1252 q 565 1169 565 1219 q 529 1087 565 1119 q 436 1054 493 1054 q 344 1087 381 1054 q 308 1169 308 1119 q 344 1252 308 1219 q 436 1285 381 1285 q 529 1252 493 1285 m 774 183 l 774 0 l 103 0 l 103 997 l 764 997 l 764 814 l 314 814 l 314 604 l 722 604 l 722 422 l 314 422 l 314 183 l 774 183 z "},"ė":{"ha":804,"x_min":38,"x_max":761,"o":"m 525 914 q 489 832 525 864 q 396 800 453 800 q 303 832 339 800 q 267 914 267 864 q 303 998 267 965 q 396 1031 339 1031 q 489 998 453 1031 q 525 914 525 965 m 408 -12 q 140 94 242 -12 q 38 374 38 200 q 142 647 38 539 q 406 756 246 756 q 685 631 582 756 q 761 324 788 506 l 235 324 q 404 136 254 136 q 568 251 533 136 l 760 251 q 637 56 729 125 q 408 -12 544 -12 m 401 614 q 238 446 263 614 l 557 446 q 511 569 553 524 q 401 614 469 614 z "},"Ę":{"ha":835,"x_min":103,"x_max":774,"o":"m 722 -132 l 722 -260 q 631 -274 679 -274 q 513 -237 558 -274 q 467 -132 467 -200 q 528 0 467 -65 l 103 0 l 103 997 l 764 997 l 764 814 l 314 814 l 314 604 l 722 604 l 722 422 l 314 422 l 314 183 l 774 183 l 774 0 l 649 0 q 615 -78 615 -37 q 632 -125 615 -108 q 676 -142 649 -142 q 722 -132 699 -142 z "},"ę":{"ha":804,"x_min":38,"x_max":761,"o":"m 408 -12 q 140 94 242 -12 q 38 374 38 200 q 142 647 38 539 q 406 756 246 756 q 685 631 582 756 q 761 324 788 506 l 235 324 q 404 136 254 136 q 568 251 533 136 l 760 251 q 593 29 722 97 q 529 -78 529 -22 q 546 -125 529 -108 q 590 -142 563 -142 q 636 -132 613 -142 l 636 -260 q 544 -274 593 -274 q 426 -237 472 -274 q 381 -132 381 -200 q 431 -12 381 -71 l 408 -12 m 401 614 q 238 446 263 614 l 557 446 q 511 569 553 524 q 401 614 469 614 z "},"Ě":{"ha":835,"x_min":103,"x_max":774,"o":"m 557 1056 l 318 1056 l 126 1268 l 339 1268 l 438 1158 l 536 1268 l 749 1268 l 557 1056 m 774 183 l 774 0 l 103 0 l 103 997 l 764 997 l 764 814 l 314 814 l 314 604 l 722 604 l 722 422 l 314 422 l 314 183 l 774 183 z "},"ě":{"ha":804,"x_min":38,"x_max":761,"o":"m 517 801 l 278 801 l 86 1013 l 299 1013 l 397 903 l 496 1013 l 707 1013 l 517 801 m 408 -12 q 140 94 242 -12 q 38 374 38 200 q 142 647 38 539 q 406 756 246 756 q 685 631 582 756 q 761 324 788 506 l 235 324 q 404 136 254 136 q 568 251 533 136 l 760 251 q 637 56 729 125 q 408 -12 544 -12 m 401 614 q 238 446 263 614 l 557 446 q 511 569 553 524 q 401 614 469 614 z "},"Ğ":{"ha":1106,"x_min":44,"x_max":1061,"o":"m 654 1268 l 790 1268 q 726 1109 790 1168 q 550 1050 661 1050 q 373 1109 438 1050 q 308 1268 308 1168 l 446 1268 q 474 1198 446 1224 q 550 1172 501 1172 q 626 1198 599 1172 q 654 1268 654 1224 m 558 -21 q 192 126 339 -21 q 44 503 44 274 q 188 871 44 724 q 550 1018 332 1018 q 867 918 736 1018 q 1049 651 999 818 l 800 651 q 709 780 776 731 q 544 829 642 829 q 340 741 419 829 q 261 497 261 653 q 342 253 261 349 q 568 158 422 158 q 744 216 675 158 q 836 369 814 274 l 547 369 l 547 538 l 1061 538 q 933 135 1071 292 q 558 -21 794 -21 z "},"ğ":{"ha":842,"x_min":38,"x_max":754,"o":"m 508 1013 l 644 1013 q 580 853 644 913 q 404 794 515 794 q 226 853 292 794 q 161 1013 161 913 l 299 1013 q 327 942 299 968 q 404 917 356 917 q 481 942 453 917 q 508 1013 508 968 m 401 -282 q 158 -206 251 -282 q 60 -3 65 -131 l 246 -3 q 400 -132 258 -132 q 563 32 563 -132 l 563 140 q 478 58 532 88 q 356 28 424 28 q 128 131 219 28 q 38 392 38 235 q 124 654 38 553 q 349 756 211 756 q 578 640 496 756 l 578 742 l 754 742 l 754 35 q 660 -197 754 -112 q 401 -282 567 -282 m 275 535 q 253 509 275 535 q 231 392 231 482 q 274 248 231 301 q 393 194 318 194 q 515 249 469 194 q 561 390 561 303 q 515 535 561 481 q 393 589 469 589 q 275 535 319 589 z "},"Ģ":{"ha":1106,"x_min":44,"x_max":1061,"o":"m 558 -21 q 192 126 339 -21 q 44 503 44 274 q 188 871 44 724 q 550 1018 332 1018 q 867 918 736 1018 q 1049 651 999 818 l 800 651 q 709 780 776 731 q 544 829 642 829 q 340 741 419 829 q 261 497 261 653 q 342 253 261 349 q 568 158 422 158 q 744 216 675 158 q 836 369 814 274 l 547 369 l 547 538 l 1061 538 q 933 135 1071 292 q 558 -21 794 -21 m 660 -158 q 592 -282 660 -235 q 428 -317 524 -329 l 428 -244 q 554 -197 536 -258 q 474 -188 508 -208 q 440 -131 440 -168 q 468 -72 440 -94 q 543 -50 496 -50 q 627 -80 594 -50 q 660 -158 660 -110 z "},"ģ":{"ha":842,"x_min":38,"x_max":754,"o":"m 293 900 q 361 1024 293 978 q 526 1058 429 1071 l 526 988 q 399 939 415 999 q 429 943 414 943 q 489 923 465 943 q 513 872 513 903 q 485 815 513 836 q 410 793 457 793 q 326 823 358 793 q 293 900 293 853 m 401 -282 q 158 -206 251 -282 q 60 -3 65 -131 l 246 -3 q 400 -132 258 -132 q 563 32 563 -132 l 563 140 q 478 58 532 88 q 356 28 424 28 q 128 131 219 28 q 38 392 38 235 q 124 654 38 553 q 349 756 211 756 q 578 640 496 756 l 578 742 l 754 742 l 754 35 q 660 -197 754 -112 q 401 -282 567 -282 m 275 535 q 253 509 275 535 q 231 392 231 482 q 274 248 231 301 q 393 194 318 194 q 515 249 469 194 q 561 390 561 303 q 515 535 561 481 q 393 589 469 589 q 275 535 319 589 z "},"Ī":{"ha":415,"x_min":-18,"x_max":438,"o":"m 438 1074 l -18 1074 l -18 1199 l 438 1199 l 438 1074 m 314 0 l 103 0 l 103 997 l 314 997 l 314 0 z "},"ī":{"ha":365,"x_min":-46,"x_max":410,"o":"m 410 818 l -46 818 l -46 944 l 410 944 l 410 818 m 279 0 l 86 0 l 86 742 l 279 742 l 279 0 z "},"Į":{"ha":415,"x_min":1,"x_max":314,"o":"m 258 -132 l 258 -260 q 167 -274 213 -274 q 48 -237 94 -274 q 1 -132 1 -200 q 103 40 1 -50 l 103 997 l 314 997 l 314 0 l 185 0 q 151 -78 151 -37 q 168 -125 151 -108 q 213 -142 185 -142 q 258 -132 235 -142 z "},"į":{"ha":365,"x_min":-14,"x_max":310,"o":"m 310 914 q 274 832 310 864 q 181 800 238 800 q 89 833 125 800 q 53 914 53 865 q 89 998 53 965 q 181 1031 125 1031 q 274 998 238 1031 q 310 914 310 965 m 243 -132 l 243 -260 q 151 -274 197 -274 q 33 -237 79 -274 q -14 -132 -14 -200 q 86 39 -14 -53 l 86 742 l 279 742 l 279 0 l 169 0 q 136 -78 136 -37 q 153 -125 136 -108 q 197 -142 169 -142 q 243 -132 219 -142 z "},"İ":{"ha":415,"x_min":79,"x_max":338,"o":"m 301 1252 q 319 1236 301 1252 q 338 1169 338 1219 q 301 1087 338 1119 q 208 1054 265 1054 q 115 1087 151 1054 q 79 1169 79 1119 q 115 1252 79 1219 q 208 1285 151 1285 q 301 1252 265 1285 m 314 0 l 103 0 l 103 997 l 314 997 l 314 0 z "},"ı":{"ha":365,"x_min":86,"x_max":279,"o":"m 279 0 l 86 0 l 86 742 l 279 742 l 279 0 z "},"Ķ":{"ha":944,"x_min":103,"x_max":929,"o":"m 314 0 l 103 0 l 103 997 l 314 997 l 314 558 l 676 997 l 918 997 l 522 519 l 929 0 l 669 0 l 314 456 l 314 0 m 593 -158 q 524 -282 593 -235 q 360 -317 456 -329 l 360 -244 q 488 -197 468 -258 q 407 -188 442 -208 q 372 -131 372 -168 q 401 -72 372 -94 q 476 -50 429 -50 q 560 -80 526 -50 q 593 -158 593 -110 z "},"ķ":{"ha":811,"x_min":86,"x_max":808,"o":"m 279 0 l 86 0 l 86 997 l 279 997 l 279 428 l 550 742 l 772 742 l 465 386 l 808 0 l 563 0 l 279 344 l 279 0 m 524 -158 q 456 -282 524 -235 q 292 -317 388 -329 l 292 -244 q 418 -197 400 -258 q 338 -188 372 -208 q 304 -131 304 -168 q 332 -72 304 -94 q 407 -50 360 -50 q 491 -80 458 -50 q 524 -158 524 -110 z "},"Ĺ":{"ha":789,"x_min":103,"x_max":747,"o":"m 318 1056 l 118 1056 l 257 1268 l 479 1268 l 318 1056 m 747 0 l 103 0 l 103 997 l 314 997 l 314 190 l 747 190 l 747 0 z "},"ĺ":{"ha":368,"x_min":86,"x_max":449,"o":"m 288 1056 l 88 1056 l 226 1268 l 449 1268 l 288 1056 m 281 0 l 86 0 l 86 997 l 281 997 l 281 0 z "},"Ļ":{"ha":789,"x_min":103,"x_max":747,"o":"m 747 0 l 103 0 l 103 997 l 314 997 l 314 190 l 747 190 l 747 0 m 532 -158 q 463 -282 532 -235 q 299 -317 394 -329 l 299 -244 q 426 -197 407 -258 q 347 -188 381 -208 q 313 -131 313 -168 q 340 -72 313 -94 q 415 -50 368 -50 q 499 -80 467 -50 q 532 -158 532 -110 z "},"ļ":{"ha":368,"x_min":61,"x_max":294,"o":"m 281 0 l 86 0 l 86 997 l 281 997 l 281 0 m 294 -158 q 226 -282 294 -235 q 61 -317 157 -329 l 61 -244 q 189 -197 169 -258 q 109 -188 143 -208 q 75 -131 75 -168 q 103 -72 75 -94 q 178 -50 131 -50 q 262 -80 229 -50 q 294 -158 294 -110 z "},"Ľ":{"ha":789,"x_min":103,"x_max":747,"o":"m 747 0 l 103 0 l 103 997 l 314 997 l 314 190 l 747 190 l 747 0 m 542 783 l 414 783 l 414 997 l 574 997 l 542 783 z "},"ľ":{"ha":368,"x_min":86,"x_max":486,"o":"m 281 0 l 86 0 l 86 997 l 281 997 l 281 0 m 453 783 l 326 783 l 326 997 l 486 997 l 453 783 z "},"Ł":{"ha":789,"x_min":-25,"x_max":747,"o":"m 747 0 l 103 0 l 103 383 l -25 351 l -25 521 l 103 551 l 103 997 l 314 997 l 314 603 l 593 671 l 593 504 l 314 435 l 314 190 l 747 190 l 747 0 z "},"ł":{"ha":368,"x_min":-44,"x_max":410,"o":"m 281 0 l 86 0 l 86 403 l -44 372 l -44 532 l 86 563 l 86 997 l 281 997 l 281 607 l 410 638 l 410 476 l 281 447 l 281 0 z "},"Ń":{"ha":1063,"x_min":103,"x_max":960,"o":"m 635 1056 l 433 1056 l 574 1268 l 796 1268 l 635 1056 m 753 0 l 296 696 l 296 0 l 103 0 l 103 997 l 331 997 l 765 336 l 765 997 l 960 997 l 960 0 l 753 0 z "},"ń":{"ha":824,"x_min":86,"x_max":743,"o":"m 515 801 l 315 801 l 454 1013 l 678 1013 l 515 801 m 279 404 l 279 0 l 86 0 l 86 742 l 264 742 l 264 636 q 492 756 351 756 q 674 683 606 756 q 743 479 743 611 l 743 0 l 551 0 l 551 414 q 421 585 551 585 q 319 538 360 585 q 279 404 279 490 z "},"Ņ":{"ha":1063,"x_min":103,"x_max":960,"o":"m 753 0 l 296 696 l 296 0 l 103 0 l 103 997 l 331 997 l 765 336 l 765 997 l 960 997 l 960 0 l 753 0 m 642 -158 q 573 -282 642 -235 q 408 -317 504 -329 l 408 -244 q 536 -197 517 -258 q 456 -188 490 -208 q 422 -131 422 -168 q 450 -72 422 -94 q 525 -50 478 -50 q 609 -80 576 -50 q 642 -158 642 -110 z "},"ņ":{"ha":824,"x_min":86,"x_max":743,"o":"m 279 404 l 279 0 l 86 0 l 86 742 l 264 742 l 264 636 q 492 756 351 756 q 674 683 606 756 q 743 479 743 611 l 743 0 l 551 0 l 551 414 q 421 585 551 585 q 319 538 360 585 q 279 404 279 490 m 522 -158 q 454 -282 522 -235 q 290 -317 386 -329 l 290 -244 q 417 -197 399 -258 q 337 -188 371 -208 q 303 -131 303 -168 q 331 -72 303 -94 q 406 -50 358 -50 q 490 -80 457 -50 q 522 -158 522 -110 z "},"Ň":{"ha":1063,"x_min":103,"x_max":960,"o":"m 650 1056 l 413 1056 l 221 1268 l 432 1268 l 531 1158 l 631 1268 l 842 1268 l 650 1056 m 753 0 l 296 696 l 296 0 l 103 0 l 103 997 l 331 997 l 765 336 l 765 997 l 960 997 l 960 0 l 753 0 z "},"ň":{"ha":824,"x_min":86,"x_max":743,"o":"m 532 801 l 293 801 l 101 1013 l 314 1013 l 413 903 l 511 1013 l 724 1013 l 532 801 m 279 404 l 279 0 l 86 0 l 86 742 l 264 742 l 264 636 q 492 756 351 756 q 674 683 606 756 q 743 479 743 611 l 743 0 l 551 0 l 551 414 q 421 585 551 585 q 319 538 360 585 q 279 404 279 490 z "},"Ō":{"ha":1110,"x_min":44,"x_max":1067,"o":"m 782 1074 l 328 1074 l 328 1199 l 782 1199 l 782 1074 m 554 -21 q 191 128 338 -21 q 44 500 44 276 q 191 870 44 722 q 554 1018 338 1018 q 919 870 772 1018 q 1067 500 1067 722 q 919 128 1067 276 q 554 -21 772 -21 m 341 263 q 381 216 341 263 q 554 168 421 168 q 768 263 688 168 q 849 500 849 358 q 769 735 849 642 q 554 829 689 829 q 341 735 421 829 q 261 500 261 642 q 341 263 261 358 z "},"ō":{"ha":828,"x_min":38,"x_max":790,"o":"m 642 818 l 188 818 l 188 944 l 642 944 l 642 818 m 683 97 q 629 42 683 97 q 414 -14 575 -14 q 145 97 253 -14 q 38 371 38 208 q 145 644 38 533 q 414 756 253 756 q 683 644 575 756 q 790 371 790 533 q 683 97 790 208 m 288 214 q 313 185 288 214 q 414 157 339 157 q 540 214 489 157 q 592 371 592 271 q 540 526 592 469 q 414 583 489 583 q 288 526 339 583 q 236 371 236 469 q 288 214 236 271 z "},"Ő":{"ha":1110,"x_min":44,"x_max":1067,"o":"m 776 1056 l 588 1056 l 738 1268 l 938 1268 l 776 1056 m 486 1056 l 297 1056 l 436 1268 l 635 1268 l 486 1056 m 554 -21 q 191 128 338 -21 q 44 500 44 276 q 191 870 44 722 q 554 1018 338 1018 q 919 870 772 1018 q 1067 500 1067 722 q 919 128 1067 276 q 554 -21 772 -21 m 341 263 q 381 216 341 263 q 554 168 421 168 q 768 263 688 168 q 849 500 849 358 q 769 735 849 642 q 554 829 689 829 q 341 735 421 829 q 261 500 261 642 q 341 263 261 358 z "},"ő":{"ha":828,"x_min":38,"x_max":797,"o":"m 635 801 l 446 801 l 596 1013 l 797 1013 l 635 801 m 344 801 l 156 801 l 294 1013 l 494 1013 l 344 801 m 683 97 q 629 42 683 97 q 414 -14 575 -14 q 145 97 253 -14 q 38 371 38 208 q 145 644 38 533 q 414 756 253 756 q 683 644 575 756 q 790 371 790 533 q 683 97 790 208 m 288 214 q 313 185 288 214 q 414 157 339 157 q 540 214 489 157 q 592 371 592 271 q 540 526 592 469 q 414 583 489 583 q 288 526 339 583 q 236 371 236 469 q 288 214 236 271 z "},"Œ":{"ha":1489,"x_min":44,"x_max":1428,"o":"m 175 124 q 110 196 175 124 q 44 500 44 268 q 174 875 44 732 q 504 1018 304 1018 q 667 985 589 1018 q 789 897 744 953 l 789 997 l 1418 997 l 1418 815 l 976 815 l 976 604 l 1378 604 l 1378 422 l 976 422 l 976 182 l 1428 182 l 1428 0 l 789 0 l 789 106 q 504 -21 678 -21 q 175 124 306 -21 m 328 740 q 295 695 328 740 q 261 500 261 650 q 328 259 261 350 q 513 168 396 168 q 698 259 631 168 q 765 500 765 350 q 698 740 765 650 q 513 829 631 829 q 328 740 396 829 z "},"œ":{"ha":1322,"x_min":38,"x_max":1279,"o":"m 38 371 q 141 648 38 540 q 401 756 244 756 q 555 719 485 756 q 671 617 625 682 q 929 756 761 756 q 1205 635 1107 756 q 1279 324 1303 514 l 767 324 q 935 136 774 136 q 1037 168 999 136 q 1082 251 1075 200 l 1278 251 q 1155 57 1244 126 q 935 -12 1065 -12 q 669 125 757 -12 q 555 23 625 60 q 401 -14 485 -14 q 141 94 244 -14 q 38 371 38 203 m 929 614 q 820 570 864 614 q 771 446 776 526 l 1082 446 q 1040 570 1079 526 q 929 614 1000 614 m 285 528 q 260 500 285 528 q 236 371 236 472 q 285 213 236 269 q 407 157 333 157 q 528 213 479 157 q 576 371 576 269 q 528 528 576 472 q 407 583 479 583 q 285 528 333 583 z "},"Ŕ":{"ha":951,"x_min":103,"x_max":922,"o":"m 579 1056 l 379 1056 l 518 1268 l 740 1268 l 579 1056 m 314 0 l 103 0 l 103 997 l 493 997 q 786 913 682 997 q 890 674 890 828 q 831 497 890 572 q 665 385 772 421 l 922 0 l 671 0 l 446 353 l 314 353 l 314 0 m 314 822 l 314 526 l 483 526 q 679 674 679 526 q 483 822 679 822 l 314 822 z "},"ŕ":{"ha":567,"x_min":86,"x_max":603,"o":"m 442 801 l 240 801 l 381 1013 l 603 1013 l 442 801 m 279 360 l 279 0 l 86 0 l 86 742 l 264 742 l 264 599 q 383 709 304 668 q 553 750 463 750 l 553 550 q 349 518 419 560 q 279 360 279 476 z "},"Ŗ":{"ha":951,"x_min":103,"x_max":922,"o":"m 314 0 l 103 0 l 103 997 l 493 997 q 786 913 682 997 q 890 674 890 828 q 831 497 890 572 q 665 385 772 421 l 922 0 l 671 0 l 446 353 l 314 353 l 314 0 m 314 822 l 314 526 l 483 526 q 679 674 679 526 q 483 822 679 822 l 314 822 m 586 -158 q 518 -282 586 -235 q 354 -317 450 -329 l 354 -244 q 481 -197 463 -258 q 401 -188 435 -208 q 367 -131 367 -168 q 394 -72 367 -94 q 469 -50 422 -50 q 553 -80 521 -50 q 586 -158 586 -110 z "},"ŗ":{"ha":567,"x_min":67,"x_max":553,"o":"m 279 360 l 279 0 l 86 0 l 86 742 l 264 742 l 264 599 q 383 709 304 668 q 553 750 463 750 l 553 550 q 349 518 419 560 q 279 360 279 476 m 299 -158 q 231 -282 299 -235 q 67 -317 163 -329 l 67 -244 q 193 -197 175 -258 q 113 -188 147 -208 q 79 -131 79 -168 q 107 -72 79 -94 q 182 -50 135 -50 q 266 -80 233 -50 q 299 -158 299 -110 z "},"Ř":{"ha":951,"x_min":103,"x_max":922,"o":"m 596 1056 l 357 1056 l 165 1268 l 378 1268 l 476 1158 l 575 1268 l 786 1268 l 596 1056 m 314 0 l 103 0 l 103 997 l 493 997 q 786 913 682 997 q 890 674 890 828 q 831 497 890 572 q 665 385 772 421 l 922 0 l 671 0 l 446 353 l 314 353 l 314 0 m 314 822 l 314 526 l 483 526 q 679 674 679 526 q 483 822 679 822 l 314 822 z "},"ř":{"ha":567,"x_min":26,"x_max":649,"o":"m 457 801 l 219 801 l 26 1013 l 239 1013 l 338 903 l 438 1013 l 649 1013 l 457 801 m 279 360 l 279 0 l 86 0 l 86 742 l 264 742 l 264 599 q 383 709 304 668 q 553 750 463 750 l 553 550 q 349 518 419 560 q 279 360 279 476 z "},"Ś":{"ha":921,"x_min":42,"x_max":868,"o":"m 556 1056 l 356 1056 l 494 1268 l 717 1268 l 556 1056 m 868 310 q 759 76 868 165 q 465 -14 650 -14 q 165 79 278 -14 q 42 332 53 172 l 256 332 q 313 200 260 249 q 461 151 367 151 q 594 185 543 151 q 644 279 644 219 q 511 396 644 369 l 347 428 q 152 519 225 451 q 79 704 79 588 q 185 924 79 838 q 451 1010 290 1010 q 732 917 621 1010 q 853 671 843 825 l 639 671 q 583 798 633 750 q 454 846 533 846 q 336 809 379 846 q 293 718 293 772 q 428 607 293 633 l 599 572 q 868 310 868 519 z "},"ś":{"ha":758,"x_min":39,"x_max":713,"o":"m 481 801 l 279 801 l 419 1014 l 642 1014 l 481 801 m 713 238 q 626 53 713 119 q 383 -14 540 -14 q 139 56 228 -14 q 39 253 50 126 l 224 253 q 269 162 225 196 q 386 128 314 128 q 482 147 446 128 q 518 204 518 167 q 494 256 518 239 q 417 285 471 274 l 283 310 q 126 383 182 328 q 69 522 69 438 q 152 691 69 626 q 372 756 235 756 q 601 686 513 756 q 700 497 690 617 l 515 497 q 472 583 510 551 q 372 614 433 614 q 286 594 318 614 q 254 540 254 575 q 277 492 254 508 q 351 465 300 475 l 494 439 q 713 238 713 397 z "},"Ş":{"ha":921,"x_min":42,"x_max":868,"o":"m 624 -157 q 576 -242 624 -208 q 454 -275 528 -275 q 331 -240 378 -275 q 276 -142 283 -206 l 394 -142 q 447 -185 403 -185 q 481 -174 468 -185 q 493 -146 493 -162 q 386 -96 493 -85 l 408 -11 q 149 94 246 3 q 42 332 53 186 l 256 332 q 313 200 260 249 q 461 151 367 151 q 594 185 543 151 q 644 279 644 219 q 511 396 644 369 l 347 428 q 152 519 225 451 q 79 704 79 588 q 185 924 79 838 q 451 1010 290 1010 q 732 917 621 1010 q 853 671 843 825 l 639 671 q 583 798 633 750 q 454 846 533 846 q 336 809 379 846 q 293 718 293 772 q 428 607 293 633 l 599 572 q 868 310 868 519 q 770 85 868 172 q 503 -12 672 -3 l 493 -44 q 588 -82 553 -51 q 624 -157 624 -112 z "},"ş":{"ha":758,"x_min":39,"x_max":713,"o":"m 549 -157 q 501 -242 549 -208 q 379 -275 453 -275 q 256 -240 303 -275 q 200 -142 208 -206 l 319 -142 q 372 -185 328 -185 q 406 -174 393 -185 q 418 -146 418 -162 q 311 -96 418 -85 l 333 -12 q 125 68 200 -1 q 39 253 50 138 l 224 253 q 269 162 225 196 q 386 128 314 128 q 482 147 446 128 q 518 204 518 167 q 494 256 518 239 q 417 285 471 274 l 283 310 q 126 383 182 328 q 69 522 69 438 q 152 691 69 626 q 372 756 235 756 q 601 686 513 756 q 700 497 690 617 l 515 497 q 472 583 510 551 q 372 614 433 614 q 286 594 318 614 q 254 540 254 575 q 277 492 254 508 q 351 465 300 475 l 494 439 q 713 238 713 397 q 638 63 713 128 q 428 -12 564 -3 l 418 -44 q 513 -82 476 -51 q 549 -157 549 -112 z "},"Š":{"ha":921,"x_min":42,"x_max":868,"o":"m 571 1056 l 333 1056 l 142 1268 l 354 1268 l 451 1158 l 551 1268 l 763 1268 l 571 1056 m 868 310 q 759 76 868 165 q 465 -14 650 -14 q 165 79 278 -14 q 42 332 53 172 l 256 332 q 313 200 260 249 q 461 151 367 151 q 594 185 543 151 q 644 279 644 219 q 511 396 644 369 l 347 428 q 152 519 225 451 q 79 704 79 588 q 185 924 79 838 q 451 1010 290 1010 q 732 917 621 1010 q 853 671 843 825 l 639 671 q 583 798 633 750 q 454 846 533 846 q 336 809 379 846 q 293 718 293 772 q 428 607 293 633 l 599 572 q 868 310 868 519 z "},"š":{"ha":758,"x_min":39,"x_max":713,"o":"m 496 801 l 258 801 l 67 1014 l 279 1014 l 376 904 l 476 1014 l 688 1014 l 496 801 m 713 238 q 626 53 713 119 q 383 -14 540 -14 q 139 56 228 -14 q 39 253 50 126 l 224 253 q 269 162 225 196 q 386 128 314 128 q 482 147 446 128 q 518 204 518 167 q 494 256 518 239 q 417 285 471 274 l 283 310 q 126 383 182 328 q 69 522 69 438 q 152 691 69 626 q 372 756 235 756 q 601 686 513 756 q 700 497 690 617 l 515 497 q 472 583 510 551 q 372 614 433 614 q 286 594 318 614 q 254 540 254 575 q 277 492 254 508 q 351 465 300 475 l 494 439 q 713 238 713 397 z "},"Ţ":{"ha":888,"x_min":24,"x_max":864,"o":"m 549 0 l 486 0 l 474 -44 q 568 -82 532 -51 q 604 -157 604 -112 q 556 -242 604 -208 q 435 -275 508 -275 q 310 -240 357 -275 q 256 -142 264 -206 l 375 -142 q 426 -185 381 -185 q 460 -174 447 -185 q 472 -146 472 -162 q 367 -96 472 -85 l 392 0 l 338 0 l 338 807 l 24 807 l 24 997 l 864 997 l 864 807 l 549 807 l 549 0 z "},"ţ":{"ha":586,"x_min":0,"x_max":554,"o":"m 515 -157 q 467 -242 515 -208 q 344 -275 419 -275 q 222 -240 268 -275 q 167 -142 175 -206 l 285 -142 q 338 -185 293 -185 q 371 -174 358 -185 q 383 -146 383 -162 q 278 -96 383 -85 l 303 0 q 150 240 150 49 l 150 576 l 0 576 l 0 742 l 150 742 l 150 961 l 342 961 l 342 742 l 554 742 l 554 576 l 342 576 l 342 285 q 450 164 342 164 q 547 188 504 164 l 547 19 q 399 -14 481 -14 l 392 -14 l 383 -44 q 479 -82 443 -51 q 515 -157 515 -112 z "},"Ť":{"ha":888,"x_min":24,"x_max":864,"o":"m 563 1056 l 324 1056 l 132 1268 l 344 1268 l 443 1158 l 543 1268 l 754 1268 l 563 1056 m 549 0 l 338 0 l 338 807 l 24 807 l 24 997 l 864 997 l 864 807 l 549 807 l 549 0 z "},"ť":{"ha":586,"x_min":0,"x_max":554,"o":"m 514 783 l 388 783 l 388 997 l 547 997 l 514 783 m 547 188 l 547 19 q 399 -14 481 -14 q 216 51 282 -14 q 150 240 150 117 l 150 576 l 0 576 l 0 742 l 150 742 l 150 961 l 342 961 l 342 742 l 554 742 l 554 576 l 342 576 l 342 285 q 450 164 342 164 q 547 188 504 164 z "},"Ū":{"ha":1019,"x_min":100,"x_max":921,"o":"m 738 1074 l 283 1074 l 283 1199 l 738 1199 l 738 1074 m 921 997 l 921 379 q 812 89 921 199 q 511 -21 703 -21 q 208 89 317 -21 q 100 379 100 199 l 100 997 l 311 997 l 311 375 q 360 223 311 278 q 511 168 410 168 q 660 223 611 168 q 710 375 710 278 l 710 997 l 921 997 z "},"ū":{"ha":817,"x_min":79,"x_max":729,"o":"m 635 818 l 181 818 l 181 944 l 635 944 l 635 818 m 538 313 l 538 742 l 729 742 l 729 0 l 553 0 l 553 97 q 464 17 522 47 q 336 -14 406 -14 q 149 58 219 -14 q 79 269 79 129 l 79 742 l 272 742 l 272 307 q 401 157 272 157 q 497 199 457 157 q 538 313 538 240 z "},"Ů":{"ha":1019,"x_min":100,"x_max":921,"o":"m 511 1049 q 376 1099 429 1049 q 324 1219 324 1149 q 376 1342 324 1292 q 511 1393 429 1393 q 645 1342 592 1393 q 699 1219 699 1292 q 645 1099 699 1149 q 511 1049 592 1049 m 457 1165 q 468 1156 457 1165 q 511 1146 479 1146 q 565 1165 543 1146 q 586 1219 586 1183 q 565 1276 586 1256 q 511 1296 543 1296 q 457 1276 479 1296 q 435 1219 435 1256 q 457 1165 435 1185 m 921 997 l 921 379 q 812 89 921 199 q 511 -21 703 -21 q 208 89 317 -21 q 100 379 100 199 l 100 997 l 311 997 l 311 375 q 360 223 311 278 q 511 168 410 168 q 660 223 611 168 q 710 375 710 278 l 710 997 l 921 997 z "},"ů":{"ha":817,"x_min":79,"x_max":729,"o":"m 542 844 q 516 819 542 844 q 407 794 489 794 q 272 844 325 794 q 219 965 219 894 q 272 1088 219 1038 q 407 1138 325 1138 q 542 1088 489 1138 q 596 965 596 1038 q 542 844 596 894 m 407 892 q 461 910 440 892 q 482 965 482 929 q 461 1021 482 1001 q 407 1040 440 1040 q 353 1021 375 1040 q 332 965 332 1001 q 353 910 332 929 q 407 892 375 892 m 538 313 l 538 742 l 729 742 l 729 0 l 553 0 l 553 97 q 464 17 522 47 q 336 -14 406 -14 q 149 58 219 -14 q 79 269 79 129 l 79 742 l 272 742 l 272 307 q 401 157 272 157 q 497 199 457 157 q 538 313 538 240 z "},"Ű":{"ha":1019,"x_min":100,"x_max":921,"o":"m 732 1056 l 543 1056 l 693 1268 l 893 1268 l 732 1056 m 442 1056 l 253 1056 l 392 1268 l 590 1268 l 442 1056 m 921 997 l 921 379 q 812 89 921 199 q 511 -21 703 -21 q 208 89 317 -21 q 100 379 100 199 l 100 997 l 311 997 l 311 375 q 360 223 311 278 q 511 168 410 168 q 660 223 611 168 q 710 375 710 278 l 710 997 l 921 997 z "},"ű":{"ha":817,"x_min":79,"x_max":790,"o":"m 629 801 l 440 801 l 589 1013 l 790 1013 l 629 801 m 339 801 l 150 801 l 289 1013 l 488 1013 l 339 801 m 538 313 l 538 742 l 729 742 l 729 0 l 553 0 l 553 97 q 464 17 522 47 q 336 -14 406 -14 q 149 58 219 -14 q 79 269 79 129 l 79 742 l 272 742 l 272 307 q 401 157 272 157 q 497 199 457 157 q 538 313 538 240 z "},"Ų":{"ha":1019,"x_min":100,"x_max":921,"o":"m 775 -132 l 775 -260 q 683 -274 729 -274 q 565 -237 611 -274 q 518 -132 518 -200 q 563 -18 518 -76 q 511 -21 529 -21 q 208 89 317 -21 q 100 379 100 199 l 100 997 l 311 997 l 311 375 q 360 223 311 278 q 511 168 410 168 q 660 223 611 168 q 710 375 710 278 l 710 997 l 921 997 l 921 379 q 872 171 921 261 q 733 31 824 81 q 668 -78 668 -22 q 685 -125 668 -108 q 729 -142 701 -142 q 775 -132 751 -142 z "},"ų":{"ha":817,"x_min":79,"x_max":729,"o":"m 538 313 l 538 742 l 729 742 l 729 0 l 635 0 q 601 -78 601 -37 q 618 -125 601 -108 q 663 -142 635 -142 q 710 -132 685 -142 l 710 -260 q 618 -274 664 -274 q 499 -237 546 -274 q 453 -132 453 -200 q 553 39 453 -53 l 553 97 q 464 17 522 47 q 336 -14 406 -14 q 149 58 219 -14 q 79 269 79 129 l 79 742 l 272 742 l 272 307 q 401 157 272 157 q 497 199 457 157 q 538 313 538 240 z "},"Ŵ":{"ha":1347,"x_min":18,"x_max":1331,"o":"m 576 1056 l 364 1056 l 556 1268 l 793 1268 l 985 1056 l 774 1056 l 674 1165 l 576 1056 m 860 0 l 674 697 l 488 0 l 274 0 l 18 997 l 224 997 l 385 321 l 568 997 l 783 997 l 961 318 l 1124 997 l 1331 997 l 1074 0 l 860 0 z "},"ŵ":{"ha":1110,"x_min":11,"x_max":1099,"o":"m 457 801 l 244 801 l 436 1013 l 675 1013 l 865 801 l 654 801 l 554 911 l 457 801 m 694 0 l 554 482 l 415 0 l 222 0 l 11 742 l 199 742 l 325 272 l 461 742 l 651 742 l 783 272 l 908 742 l 1099 742 l 886 0 l 694 0 z "},"Ŷ":{"ha":936,"x_min":8,"x_max":928,"o":"m 376 1056 l 164 1056 l 356 1268 l 594 1268 l 785 1056 l 574 1056 l 474 1165 l 376 1056 m 572 375 l 572 0 l 361 0 l 361 375 l 8 997 l 236 997 l 474 568 l 715 997 l 928 997 l 572 375 z "},"ŷ":{"ha":753,"x_min":-3,"x_max":754,"o":"m 279 801 l 67 801 l 258 1013 l 497 1013 l 688 801 l 476 801 l 378 911 l 279 801 m 754 742 l 393 -268 l 183 -268 l 289 8 l -3 742 l 206 742 l 392 233 l 561 742 l 754 742 z "},"Ÿ":{"ha":936,"x_min":8,"x_max":928,"o":"m 746 1167 q 713 1086 746 1118 q 629 1054 679 1054 q 543 1086 576 1054 q 510 1167 510 1118 q 543 1249 510 1218 q 629 1281 576 1281 q 713 1249 679 1281 q 746 1167 746 1217 m 439 1167 q 406 1086 439 1118 q 319 1054 372 1054 q 235 1086 268 1054 q 201 1167 201 1118 q 235 1249 201 1217 q 319 1281 268 1281 q 406 1249 372 1281 q 439 1167 439 1218 m 572 375 l 572 0 l 361 0 l 361 375 l 8 997 l 236 997 l 474 568 l 715 997 l 928 997 l 572 375 z "},"Ź":{"ha":894,"x_min":57,"x_max":843,"o":"m 554 1056 l 353 1056 l 493 1268 l 715 1268 l 554 1056 m 843 0 l 57 0 l 57 167 l 567 815 l 58 815 l 58 997 l 826 997 l 826 828 l 314 182 l 843 182 l 843 0 z "},"ź":{"ha":735,"x_min":53,"x_max":686,"o":"m 472 801 l 272 801 l 411 1013 l 635 1013 l 472 801 m 686 0 l 54 0 l 54 156 l 436 575 l 53 575 l 53 742 l 675 742 l 675 583 l 292 168 l 686 168 l 686 0 z "},"Ż":{"ha":894,"x_min":57,"x_max":843,"o":"m 542 1252 q 560 1236 542 1252 q 578 1169 578 1219 q 542 1087 578 1119 q 449 1054 506 1054 q 357 1087 393 1054 q 321 1169 321 1119 q 357 1252 321 1219 q 449 1285 393 1285 q 542 1252 506 1285 m 843 0 l 57 0 l 57 167 l 567 815 l 58 815 l 58 997 l 826 997 l 826 828 l 314 182 l 843 182 l 843 0 z "},"ż":{"ha":735,"x_min":53,"x_max":686,"o":"m 497 914 q 461 832 497 864 q 368 800 425 800 q 276 833 313 800 q 240 914 240 865 q 276 998 240 965 q 368 1031 313 1031 q 461 998 425 1031 q 497 914 497 965 m 686 0 l 54 0 l 54 156 l 436 575 l 53 575 l 53 742 l 675 742 l 675 583 l 292 168 l 686 168 l 686 0 z "},"Ž":{"ha":894,"x_min":57,"x_max":843,"o":"m 569 1056 l 332 1056 l 139 1268 l 351 1268 l 450 1158 l 550 1268 l 761 1268 l 569 1056 m 843 0 l 57 0 l 57 167 l 567 815 l 58 815 l 58 997 l 826 997 l 826 828 l 314 182 l 843 182 l 843 0 z "},"ž":{"ha":735,"x_min":53,"x_max":686,"o":"m 489 801 l 250 801 l 58 1013 l 271 1013 l 369 903 l 468 1013 l 681 1013 l 489 801 m 686 0 l 54 0 l 54 156 l 436 575 l 53 575 l 53 742 l 675 742 l 675 583 l 292 168 l 686 168 l 686 0 z "},"ƒ":{"ha":764,"x_min":29,"x_max":724,"o":"m 463 390 l 410 175 q 310 -19 381 46 q 108 -85 240 -85 q 29 -78 75 -85 l 29 99 q 79 90 65 90 q 224 203 199 90 l 268 390 l 64 390 l 64 557 l 306 557 l 343 714 q 613 953 396 953 q 724 935 675 953 l 724 783 q 656 799 694 799 q 577 774 608 799 q 531 686 546 750 l 499 557 l 690 557 l 690 390 l 463 390 z "},"Ș":{"ha":921,"x_min":42,"x_max":868,"o":"m 868 310 q 759 76 868 165 q 465 -14 650 -14 q 165 79 278 -14 q 42 332 53 172 l 256 332 q 313 200 260 249 q 461 151 367 151 q 594 185 543 151 q 644 279 644 219 q 511 396 644 369 l 347 428 q 152 519 225 451 q 79 704 79 588 q 185 924 79 838 q 451 1010 290 1010 q 732 917 621 1010 q 853 671 843 825 l 639 671 q 583 798 633 750 q 454 846 533 846 q 336 809 379 846 q 293 718 293 772 q 428 607 293 633 l 599 572 q 868 310 868 519 m 574 -158 q 505 -282 574 -235 q 340 -317 436 -329 l 340 -244 q 468 -197 451 -258 q 388 -188 422 -208 q 354 -131 354 -168 q 382 -72 354 -94 q 457 -50 410 -50 q 541 -80 508 -50 q 574 -158 574 -110 z "},"ș":{"ha":758,"x_min":39,"x_max":713,"o":"m 713 238 q 626 53 713 119 q 383 -14 540 -14 q 139 56 228 -14 q 39 253 50 126 l 224 253 q 269 162 225 196 q 386 128 314 128 q 482 147 446 128 q 518 204 518 167 q 494 256 518 239 q 417 285 471 274 l 283 310 q 126 383 182 328 q 69 522 69 438 q 152 691 69 626 q 372 756 235 756 q 601 686 513 756 q 700 497 690 617 l 515 497 q 472 583 510 551 q 372 614 433 614 q 286 594 318 614 q 254 540 254 575 q 277 492 254 508 q 351 465 300 475 l 494 439 q 713 238 713 397 m 499 -158 q 430 -282 499 -235 q 265 -317 361 -329 l 265 -244 q 393 -197 374 -258 q 313 -188 347 -208 q 279 -131 279 -168 q 307 -72 279 -94 q 382 -50 335 -50 q 466 -80 433 -50 q 499 -158 499 -110 z "},"Ț":{"ha":888,"x_min":24,"x_max":864,"o":"m 549 0 l 338 0 l 338 807 l 24 807 l 24 997 l 864 997 l 864 807 l 549 807 l 549 0 m 554 -158 q 485 -282 554 -235 q 321 -317 417 -329 l 321 -244 q 449 -197 429 -258 q 368 -188 403 -208 q 333 -131 333 -168 q 362 -72 333 -94 q 438 -50 390 -50 q 521 -80 488 -50 q 554 -158 554 -110 z "},"ț":{"ha":586,"x_min":0,"x_max":554,"o":"m 547 188 l 547 19 q 399 -14 481 -14 q 216 51 282 -14 q 150 240 150 117 l 150 576 l 0 576 l 0 742 l 150 742 l 150 961 l 342 961 l 342 742 l 554 742 l 554 576 l 342 576 l 342 285 q 450 164 342 164 q 547 188 504 164 m 464 -158 q 396 -282 464 -235 q 232 -317 328 -329 l 232 -244 q 358 -197 340 -258 q 278 -188 313 -208 q 244 -131 244 -168 q 272 -72 244 -94 q 347 -50 300 -50 q 431 -80 399 -50 q 464 -158 464 -110 z "},"ȷ":{"ha":364,"x_min":-82,"x_max":278,"o":"m 278 742 l 278 3 q 208 -211 278 -140 q 22 -282 139 -282 q -82 -267 -42 -282 l -82 -87 q -1 -104 -50 -104 q 86 8 86 -104 l 86 742 l 278 742 z "},"ˆ":{"ha":694,"x_min":36,"x_max":658,"o":"m 249 801 l 36 801 l 229 1013 l 467 1013 l 658 801 l 447 801 l 347 911 l 249 801 z "},"ˇ":{"ha":694,"x_min":36,"x_max":658,"o":"m 467 801 l 228 801 l 36 1013 l 249 1013 l 347 903 l 446 1013 l 658 1013 l 467 801 z "},"ˉ":{"ha":694,"x_min":121,"x_max":575,"o":"m 575 803 l 121 803 l 121 928 l 575 928 l 575 803 z "},"˘":{"ha":694,"x_min":106,"x_max":589,"o":"m 451 1013 l 589 1013 q 524 853 589 913 q 347 794 458 794 q 170 853 235 794 q 106 1013 106 913 l 243 1013 q 271 942 243 968 q 347 917 299 917 q 424 942 396 917 q 451 1013 451 968 z "},"˙":{"ha":694,"x_min":218,"x_max":476,"o":"m 476 914 q 440 832 476 864 q 347 800 404 800 q 254 832 290 800 q 218 914 218 864 q 254 998 218 965 q 347 1031 290 1031 q 440 998 404 1031 q 476 914 476 965 z "},"˚":{"ha":694,"x_min":158,"x_max":535,"o":"m 481 844 q 455 819 481 844 q 346 794 428 794 q 211 844 264 794 q 158 965 158 894 q 211 1088 158 1038 q 346 1138 264 1138 q 481 1088 428 1138 q 535 965 535 1038 q 481 844 535 894 m 346 892 q 400 910 379 892 q 421 965 421 929 q 400 1021 421 1001 q 346 1040 379 1040 q 292 1021 314 1040 q 271 965 271 1001 q 292 910 271 929 q 346 892 314 892 z "},"˛":{"ha":694,"x_min":219,"x_max":476,"o":"m 476 -132 l 476 -260 q 385 -274 431 -274 q 266 -237 313 -274 q 219 -132 219 -200 q 263 -19 219 -71 q 406 110 307 32 l 461 50 q 368 -78 368 -11 q 385 -125 368 -108 q 429 -142 401 -142 q 476 -132 451 -142 z "},"˜":{"ha":694,"x_min":92,"x_max":603,"o":"m 210 797 l 92 797 q 118 953 76 893 q 236 1014 160 1014 q 356 980 288 1014 q 440 946 424 946 q 485 1025 486 946 l 603 1025 q 576 869 618 931 q 457 808 533 808 q 338 842 406 808 q 254 876 271 876 q 210 797 206 876 z "},"˝":{"ha":694,"x_min":26,"x_max":668,"o":"m 507 801 l 318 801 l 467 1013 l 668 1013 l 507 801 m 215 801 l 26 801 l 165 1013 l 365 1013 l 215 801 z "},"̀":{"ha":694,"x_min":165,"x_max":528,"o":"m 528 801 l 328 801 l 165 1013 l 389 1013 l 528 801 z "},"́":{"ha":694,"x_min":165,"x_max":528,"o":"m 367 801 l 165 801 l 304 1013 l 528 1013 l 367 801 z "},"̂":{"ha":694,"x_min":36,"x_max":658,"o":"m 249 801 l 36 801 l 229 1013 l 467 1013 l 658 801 l 447 801 l 347 911 l 249 801 z "},"̃":{"ha":694,"x_min":92,"x_max":603,"o":"m 210 797 l 92 797 q 118 953 76 893 q 236 1014 160 1014 q 356 980 288 1014 q 440 946 424 946 q 485 1025 486 946 l 603 1025 q 576 869 618 931 q 457 808 533 808 q 338 842 406 808 q 254 876 271 876 q 210 797 206 876 z "},"̄":{"ha":694,"x_min":121,"x_max":575,"o":"m 575 818 l 121 818 l 121 944 l 575 944 l 575 818 z "},"̆":{"ha":694,"x_min":106,"x_max":589,"o":"m 451 1013 l 589 1013 q 524 853 589 913 q 347 794 458 794 q 170 853 235 794 q 106 1013 106 913 l 243 1013 q 271 942 243 968 q 347 917 299 917 q 424 942 396 917 q 451 1013 451 968 z "},"̇":{"ha":694,"x_min":218,"x_max":476,"o":"m 476 914 q 440 832 476 864 q 347 800 404 800 q 254 832 290 800 q 218 914 218 864 q 254 998 218 965 q 347 1031 290 1031 q 440 998 404 1031 q 476 914 476 965 z "},"̈":{"ha":694,"x_min":75,"x_max":619,"o":"m 619 911 q 586 831 619 863 q 503 800 553 800 q 417 831 450 800 q 383 911 383 863 q 417 994 383 963 q 503 1025 450 1025 q 586 993 553 1025 q 619 911 619 961 m 311 911 q 278 831 311 863 q 193 800 246 800 q 108 831 142 800 q 75 911 75 863 q 108 993 75 961 q 193 1025 142 1025 q 278 994 246 1025 q 311 911 311 963 z "},"̊":{"ha":694,"x_min":158,"x_max":535,"o":"m 481 844 q 455 819 481 844 q 346 794 428 794 q 211 844 264 794 q 158 965 158 894 q 211 1088 158 1038 q 346 1138 264 1138 q 481 1088 428 1138 q 535 965 535 1038 q 481 844 535 894 m 346 892 q 400 910 379 892 q 421 965 421 929 q 400 1021 421 1001 q 346 1040 379 1040 q 292 1021 314 1040 q 271 965 271 1001 q 292 910 271 929 q 346 892 314 892 z "},"̋":{"ha":694,"x_min":26,"x_max":668,"o":"m 507 801 l 318 801 l 467 1013 l 668 1013 l 507 801 m 215 801 l 26 801 l 165 1013 l 365 1013 l 215 801 z "},"̌":{"ha":694,"x_min":36,"x_max":658,"o":"m 467 801 l 228 801 l 36 1013 l 249 1013 l 347 903 l 446 1013 l 658 1013 l 467 801 z "},"̒":{"ha":694,"x_min":231,"x_max":464,"o":"m 231 900 q 299 1024 231 978 q 464 1058 367 1071 l 464 988 q 336 939 356 999 q 367 943 351 943 q 427 923 403 943 q 451 872 451 903 q 423 815 451 836 q 347 793 394 793 q 264 823 297 793 q 231 900 231 853 z "},"̦":{"ha":694,"x_min":231,"x_max":464,"o":"m 464 -158 q 395 -282 464 -235 q 231 -317 326 -329 l 231 -244 q 358 -197 339 -258 q 278 -188 313 -208 q 243 -131 243 -168 q 272 -72 243 -94 q 347 -50 300 -50 q 431 -80 397 -50 q 464 -158 464 -110 z "},"̧":{"ha":694,"x_min":174,"x_max":522,"o":"m 522 -157 q 474 -242 522 -208 q 351 -275 426 -275 q 228 -240 275 -275 q 174 -142 182 -206 l 292 -142 q 344 -185 300 -185 q 378 -174 365 -185 q 390 -146 390 -162 q 285 -96 390 -85 l 315 22 l 410 22 l 390 -44 q 486 -82 450 -51 q 522 -157 522 -112 z "},"̨":{"ha":694,"x_min":219,"x_max":476,"o":"m 476 -132 l 476 -260 q 385 -274 431 -274 q 266 -237 313 -274 q 219 -132 219 -200 q 263 -19 219 -71 q 406 110 307 32 l 461 50 q 368 -78 368 -11 q 385 -125 368 -108 q 429 -142 401 -142 q 476 -132 451 -142 z "},"̵":{"ha":694,"x_min":99,"x_max":597,"o":"m 597 803 l 99 803 l 99 928 l 597 928 l 597 803 z "},"̷":{"ha":694,"x_min":121,"x_max":575,"o":"m 575 469 l 121 365 l 121 524 l 575 629 l 575 469 z "},"̸":{"ha":694,"x_min":-1,"x_max":696,"o":"m 144 0 l -1 0 l 550 742 l 696 742 l 144 0 z "},"Δ":{"ha":1001,"x_min":17,"x_max":985,"o":"m 985 0 l 17 0 l 393 997 l 611 997 l 985 0 m 496 782 l 275 167 l 714 167 l 496 782 z "},"Ω":{"ha":1013,"x_min":33,"x_max":978,"o":"m 451 0 l 40 0 l 40 181 l 292 167 l 292 219 q 102 365 171 269 q 33 597 33 461 q 165 892 33 772 q 507 1011 297 1011 q 847 892 715 1011 q 978 597 978 772 q 719 219 978 328 l 719 167 l 971 181 l 971 0 l 561 0 l 561 310 q 718 405 663 336 q 774 569 774 474 q 702 759 774 683 q 507 835 631 835 q 311 759 383 835 q 239 569 239 683 q 294 405 239 474 q 451 310 350 336 l 451 0 z "},"μ":{"ha":836,"x_min":86,"x_max":749,"o":"m 407 -14 q 261 42 310 -14 l 276 -268 l 86 -268 l 86 742 l 279 742 l 279 321 q 419 157 279 157 q 521 202 485 157 q 557 317 557 247 l 557 742 l 749 742 l 749 0 l 561 0 l 561 79 q 497 11 539 36 q 407 -14 456 -14 z "},"π":{"ha":863,"x_min":0,"x_max":831,"o":"m 710 -14 q 544 42 599 -14 q 490 232 490 97 l 490 576 l 339 576 l 301 0 l 111 0 l 164 576 l 0 576 l 0 742 l 831 742 l 831 576 l 683 576 l 683 274 q 704 194 683 218 q 768 169 725 169 q 825 179 804 169 l 825 6 q 710 -14 772 -14 z "},"Ẁ":{"ha":1347,"x_min":18,"x_max":1331,"o":"m 771 1056 l 571 1056 l 408 1268 l 632 1268 l 771 1056 m 860 0 l 674 697 l 488 0 l 274 0 l 18 997 l 224 997 l 385 321 l 568 997 l 783 997 l 961 318 l 1124 997 l 1331 997 l 1074 0 l 860 0 z "},"ẁ":{"ha":1110,"x_min":11,"x_max":1099,"o":"m 651 801 l 451 801 l 289 1013 l 513 1013 l 651 801 m 694 0 l 554 482 l 415 0 l 222 0 l 11 742 l 199 742 l 325 272 l 461 742 l 651 742 l 783 272 l 908 742 l 1099 742 l 886 0 l 694 0 z "},"Ẃ":{"ha":1347,"x_min":18,"x_max":1331,"o":"m 778 1056 l 578 1056 l 717 1268 l 939 1268 l 778 1056 m 860 0 l 674 697 l 488 0 l 274 0 l 18 997 l 224 997 l 385 321 l 568 997 l 783 997 l 961 318 l 1124 997 l 1331 997 l 1074 0 l 860 0 z "},"ẃ":{"ha":1110,"x_min":11,"x_max":1099,"o":"m 658 801 l 458 801 l 597 1013 l 819 1013 l 658 801 m 694 0 l 554 482 l 415 0 l 222 0 l 11 742 l 199 742 l 325 272 l 461 742 l 651 742 l 783 272 l 908 742 l 1099 742 l 886 0 l 694 0 z "},"Ẅ":{"ha":1347,"x_min":18,"x_max":1331,"o":"m 946 1167 q 913 1086 946 1118 q 829 1054 879 1054 q 743 1086 776 1054 q 710 1167 710 1118 q 743 1249 710 1218 q 829 1281 776 1281 q 913 1249 879 1281 q 946 1167 946 1217 m 639 1167 q 606 1086 639 1118 q 519 1054 572 1054 q 435 1086 468 1054 q 401 1167 401 1118 q 435 1249 401 1217 q 519 1281 468 1281 q 606 1249 572 1281 q 639 1167 639 1218 m 860 0 l 674 697 l 488 0 l 274 0 l 18 997 l 224 997 l 385 321 l 568 997 l 783 997 l 961 318 l 1124 997 l 1331 997 l 1074 0 l 860 0 z "},"ẅ":{"ha":1110,"x_min":11,"x_max":1099,"o":"m 826 911 q 793 831 826 863 q 710 800 760 800 q 624 831 657 800 q 590 911 590 863 q 624 994 590 963 q 710 1025 657 1025 q 793 993 760 1025 q 826 911 826 961 m 519 911 q 486 831 519 863 q 400 800 453 800 q 315 831 349 800 q 282 911 282 863 q 315 993 282 961 q 400 1025 349 1025 q 486 994 453 1025 q 519 911 519 963 m 694 0 l 554 482 l 415 0 l 222 0 l 11 742 l 199 742 l 325 272 l 461 742 l 651 742 l 783 272 l 908 742 l 1099 742 l 886 0 l 694 0 z "},"Ỳ":{"ha":936,"x_min":8,"x_max":928,"o":"m 571 1056 l 371 1056 l 208 1268 l 432 1268 l 571 1056 m 572 375 l 572 0 l 361 0 l 361 375 l 8 997 l 236 997 l 474 568 l 715 997 l 928 997 l 572 375 z "},"ỳ":{"ha":753,"x_min":-3,"x_max":754,"o":"m 474 801 l 274 801 l 111 1013 l 335 1013 l 474 801 m 754 742 l 393 -268 l 183 -268 l 289 8 l -3 742 l 206 742 l 392 233 l 561 742 l 754 742 z "},"–":{"ha":694,"x_min":28,"x_max":667,"o":"m 667 297 l 28 297 l 28 465 l 667 465 l 667 297 z "},"—":{"ha":1042,"x_min":28,"x_max":1014,"o":"m 1014 297 l 28 297 l 28 465 l 1014 465 l 1014 297 z "},"‘":{"ha":375,"x_min":44,"x_max":333,"o":"m 44 768 q 131 947 44 878 q 333 1001 218 1017 l 333 904 q 228 890 272 913 q 172 819 185 867 q 204 824 189 824 q 280 794 250 824 q 310 721 310 764 q 275 641 310 672 q 185 610 240 610 q 83 652 121 610 q 44 768 44 694 z "},"’":{"ha":375,"x_min":40,"x_max":331,"o":"m 331 849 q 244 669 331 739 q 40 615 157 600 l 40 711 q 146 726 103 704 q 203 797 189 749 q 171 792 188 792 q 94 822 125 792 q 64 896 64 851 q 99 976 64 944 q 190 1007 133 1007 q 292 965 254 1007 q 331 849 331 922 z "},"‚":{"ha":375,"x_min":40,"x_max":331,"o":"m 331 97 q 244 -82 331 -12 q 40 -136 157 -151 l 40 -40 q 146 -25 103 -47 q 203 46 189 -3 q 171 40 188 40 q 94 70 125 40 q 64 143 64 100 q 99 224 64 193 q 190 254 133 254 q 292 213 254 254 q 331 97 331 171 z "},"“":{"ha":711,"x_min":44,"x_max":669,"o":"m 44 768 q 131 947 44 878 q 333 1001 218 1017 l 333 904 q 228 890 272 913 q 172 819 185 867 q 204 824 189 824 q 280 794 250 824 q 310 721 310 764 q 275 641 310 672 q 185 610 240 610 q 83 652 121 610 q 44 768 44 694 m 381 768 q 467 947 381 878 q 669 1001 554 1017 l 669 904 q 565 890 608 913 q 508 819 521 867 q 540 824 525 824 q 616 794 586 824 q 646 721 646 764 q 612 640 646 671 q 521 610 578 610 q 419 652 457 610 q 381 768 381 694 z "},"”":{"ha":711,"x_min":40,"x_max":667,"o":"m 331 849 q 244 669 331 739 q 40 615 157 600 l 40 711 q 146 726 103 704 q 203 797 189 749 q 171 792 188 792 q 94 822 125 792 q 64 896 64 851 q 99 976 64 944 q 190 1007 133 1007 q 292 965 254 1007 q 331 849 331 922 m 667 849 q 580 669 667 739 q 376 615 493 600 l 376 711 q 482 726 439 704 q 539 797 525 749 q 507 792 524 792 q 431 822 461 792 q 400 896 400 851 q 435 976 400 944 q 526 1007 469 1007 q 628 965 590 1007 q 667 849 667 922 z "},"„":{"ha":711,"x_min":40,"x_max":667,"o":"m 331 97 q 244 -82 331 -12 q 40 -136 157 -151 l 40 -40 q 146 -25 103 -47 q 203 46 189 -3 q 171 40 188 40 q 94 70 125 40 q 64 143 64 100 q 99 224 64 193 q 190 254 133 254 q 292 213 254 254 q 331 97 331 171 m 667 97 q 580 -82 667 -12 q 376 -136 493 -151 l 376 -40 q 482 -25 439 -47 q 539 46 525 -3 q 507 40 526 40 q 431 70 463 40 q 400 143 400 100 q 435 224 400 193 q 526 254 469 254 q 628 213 590 254 q 667 97 667 171 z "},"†":{"ha":917,"x_min":111,"x_max":806,"o":"m 549 -268 l 368 -268 l 368 572 l 111 572 l 111 740 l 368 740 l 368 997 l 549 997 l 549 740 l 806 740 l 806 572 l 549 572 l 549 -268 z "},"‡":{"ha":917,"x_min":111,"x_max":806,"o":"m 549 -268 l 368 -268 l 368 -11 l 111 -11 l 111 157 l 368 157 l 368 572 l 111 572 l 111 740 l 368 740 l 368 997 l 549 997 l 549 740 l 806 740 l 806 572 l 549 572 l 549 157 l 806 157 l 806 -11 l 549 -11 l 549 -268 z "},"•":{"ha":694,"x_min":108,"x_max":586,"o":"m 586 365 q 518 195 586 263 q 346 128 450 128 q 176 195 243 128 q 108 365 108 263 q 176 540 108 471 q 346 608 243 608 q 518 540 450 608 q 586 365 586 471 z "},"…":{"ha":1221,"x_min":53,"x_max":1168,"o":"m 313 124 q 276 30 313 67 q 183 -7 240 -7 q 90 30 126 -7 q 53 124 53 67 q 90 219 53 182 q 183 256 126 256 q 276 219 240 256 q 313 124 313 182 m 740 124 q 704 30 740 67 q 611 -7 668 -7 q 517 30 554 -7 q 481 124 481 67 q 517 219 481 182 q 611 256 554 256 q 704 219 668 256 q 740 124 740 182 m 1168 124 q 1132 30 1168 67 q 1039 -7 1096 -7 q 945 30 982 -7 q 908 124 908 67 q 945 219 908 182 q 1039 256 982 256 q 1132 219 1096 256 q 1168 124 1168 182 z "},"‰":{"ha":2200,"x_min":33,"x_max":2167,"o":"m 554 449 q 510 407 554 449 q 338 364 467 364 q 121 449 208 364 q 33 656 33 535 q 120 863 33 778 q 338 947 207 947 q 554 863 467 947 q 642 656 642 778 q 554 449 642 535 m 568 0 l 414 0 l 947 939 l 1101 939 l 568 0 m 233 541 q 254 520 233 541 q 338 500 275 500 q 442 541 400 500 q 483 656 483 582 q 442 770 483 729 q 338 811 400 811 q 233 770 275 811 q 190 656 190 729 q 233 541 190 582 m 1418 73 q 1374 30 1418 73 q 1201 -12 1331 -12 q 985 73 1072 -12 q 897 279 897 158 q 984 486 897 401 q 1201 571 1071 571 q 1419 486 1332 571 q 1506 279 1506 401 q 1418 73 1506 158 m 2079 73 q 2035 30 2079 73 q 1863 -12 1992 -12 q 1646 73 1733 -12 q 1558 279 1558 158 q 1645 486 1558 401 q 1863 571 1732 571 q 2079 486 1992 571 q 2167 279 2167 401 q 2079 73 2167 158 m 1097 165 q 1118 145 1097 165 q 1201 125 1139 125 q 1306 165 1264 125 q 1349 279 1349 206 q 1306 394 1349 354 q 1201 435 1264 435 q 1097 394 1139 435 q 1054 279 1054 354 q 1097 165 1054 206 m 1758 165 q 1779 145 1758 165 q 1863 125 1800 125 q 1967 165 1925 125 q 2008 279 2008 206 q 1967 394 2008 354 q 1863 435 1925 435 q 1758 394 1800 435 q 1715 279 1715 354 q 1758 165 1715 206 z "},"‹":{"ha":461,"x_min":24,"x_max":438,"o":"m 438 86 l 226 86 l 24 371 l 226 656 l 438 656 l 246 371 l 438 86 z "},"›":{"ha":461,"x_min":24,"x_max":438,"o":"m 24 656 l 236 656 l 438 371 l 236 86 l 24 86 l 215 371 l 24 656 z "},"⁄":{"ha":293,"x_min":-192,"x_max":496,"o":"m -39 0 l -192 0 l 342 939 l 496 939 l -39 0 z "},"⁰":{"ha":564,"x_min":40,"x_max":524,"o":"m 524 996 q 461 782 524 857 q 282 707 399 707 q 103 782 165 707 q 40 996 40 857 q 103 1212 40 1136 q 282 1288 167 1288 q 460 1212 397 1288 q 524 996 524 1136 m 172 996 q 282 821 172 821 q 393 996 393 821 q 282 1174 393 1174 q 201 1128 229 1174 q 172 996 172 1082 z "},"⁴":{"ha":554,"x_min":19,"x_max":532,"o":"m 532 822 l 443 822 l 443 715 l 317 715 l 317 822 l 19 822 l 19 917 l 342 1279 l 443 1279 l 443 933 l 532 933 l 532 822 m 168 933 l 317 933 l 317 1104 l 168 933 z "},"⁵":{"ha":535,"x_min":35,"x_max":507,"o":"m 450 1035 q 478 1006 450 1035 q 507 900 507 978 q 444 765 507 822 q 271 707 382 707 q 105 758 172 707 q 35 890 38 810 l 163 890 q 271 821 174 821 q 350 844 324 821 q 376 901 376 868 q 348 958 376 933 q 267 982 319 982 q 160 928 188 982 l 56 963 l 111 1279 l 471 1279 l 471 1165 l 203 1165 l 183 1065 q 288 1092 231 1092 q 450 1035 393 1092 z "},"⁶":{"ha":551,"x_min":35,"x_max":517,"o":"m 453 1040 q 485 1016 453 1040 q 517 906 517 992 q 446 765 517 819 q 275 710 375 710 q 103 765 171 710 q 35 897 35 821 q 54 992 35 951 q 117 1076 74 1032 l 304 1281 l 449 1281 l 271 1085 q 299 1089 286 1089 q 453 1040 390 1089 m 383 901 q 353 965 383 943 q 276 988 322 988 q 198 966 229 988 q 167 901 167 944 q 199 839 167 861 q 276 817 231 817 q 353 839 322 817 q 383 901 383 861 z "},"⁷":{"ha":463,"x_min":13,"x_max":450,"o":"m 450 1204 l 218 715 l 82 715 l 307 1165 l 13 1165 l 13 1279 l 450 1279 l 450 1204 z "},"⁸":{"ha":565,"x_min":42,"x_max":522,"o":"m 522 881 q 456 757 522 806 q 283 708 390 708 q 108 756 175 708 q 42 881 42 804 q 144 1008 42 965 q 64 1124 64 1049 q 125 1241 64 1194 q 283 1288 186 1288 q 440 1241 379 1288 q 501 1124 501 1194 q 421 1008 501 1053 q 522 881 522 965 m 196 1118 q 219 1074 196 1090 q 283 1057 243 1057 q 347 1074 324 1057 q 371 1118 371 1090 q 347 1168 371 1150 q 283 1186 324 1186 q 219 1168 243 1186 q 196 1118 196 1150 m 174 883 q 203 829 174 849 q 283 810 232 810 q 363 829 333 810 q 392 883 392 849 q 362 935 392 915 q 283 956 332 956 q 203 935 233 956 q 174 883 174 915 z "},"⁹":{"ha":551,"x_min":35,"x_max":517,"o":"m 97 957 q 66 981 97 957 q 35 1092 35 1006 q 106 1233 35 1178 q 276 1288 176 1288 q 449 1232 381 1288 q 517 1100 517 1176 q 498 1005 517 1044 q 436 919 479 965 l 249 717 l 104 717 l 282 911 q 253 908 260 908 q 97 957 160 908 m 168 1096 q 198 1031 168 1053 q 275 1010 228 1010 q 353 1031 322 1010 q 385 1096 385 1053 q 353 1158 385 1136 q 275 1179 322 1179 q 199 1158 229 1179 q 168 1096 168 1136 z "},"₀":{"ha":564,"x_min":40,"x_max":524,"o":"m 524 -1 q 461 -215 524 -140 q 282 -290 399 -290 q 103 -215 165 -290 q 40 -1 40 -140 q 103 215 40 139 q 282 290 167 290 q 460 215 397 290 q 524 -1 524 139 m 172 -1 q 282 -176 172 -176 q 393 -1 393 -176 q 282 176 393 176 q 201 131 229 176 q 172 -1 172 85 z "},"₁":{"ha":335,"x_min":18,"x_max":264,"o":"m 264 -282 l 135 -282 l 135 171 l 18 171 l 18 282 l 264 282 l 264 -282 z "},"₂":{"ha":513,"x_min":25,"x_max":479,"o":"m 479 -168 l 479 -282 l 43 -282 l 44 -210 l 233 -39 q 313 41 290 11 q 336 104 336 71 q 311 156 336 135 q 244 176 286 176 q 174 155 199 176 q 149 93 149 133 l 25 93 q 89 235 25 181 q 253 290 153 290 q 410 240 351 290 q 469 121 469 189 q 439 24 469 67 q 329 -89 408 -19 l 246 -168 l 479 -168 z "},"₃":{"ha":553,"x_min":42,"x_max":511,"o":"m 511 -112 q 445 -240 511 -192 q 272 -289 379 -289 q 106 -240 171 -289 q 42 -114 42 -190 l 165 -114 q 274 -187 172 -187 q 351 -169 322 -187 q 379 -115 379 -150 q 347 -63 379 -82 q 257 -44 314 -44 l 189 -44 l 189 57 l 250 57 q 324 75 297 57 q 351 124 351 93 q 328 172 351 154 q 265 189 306 189 q 202 169 225 189 q 178 117 179 150 l 54 117 q 117 240 56 190 q 271 290 179 290 q 426 247 368 290 q 483 133 483 203 q 396 14 483 60 q 511 -112 511 -22 z "},"₄":{"ha":554,"x_min":19,"x_max":532,"o":"m 532 -175 l 443 -175 l 443 -282 l 317 -282 l 317 -175 l 19 -175 l 19 -81 l 342 282 l 443 282 l 443 -64 l 532 -64 l 532 -175 m 168 -64 l 317 -64 l 317 107 l 168 -64 z "},"₅":{"ha":535,"x_min":35,"x_max":507,"o":"m 450 38 q 478 9 450 38 q 507 -97 507 -19 q 444 -233 507 -175 q 271 -290 382 -290 q 105 -239 172 -290 q 35 -107 38 -187 l 163 -107 q 271 -176 174 -176 q 350 -153 324 -176 q 376 -96 376 -129 q 348 -40 376 -64 q 267 -15 319 -15 q 160 -69 188 -15 l 56 -35 l 111 282 l 471 282 l 471 168 l 203 168 l 183 68 q 288 94 231 94 q 450 38 393 94 z "},"₆":{"ha":551,"x_min":35,"x_max":517,"o":"m 453 43 q 485 19 453 43 q 517 -92 517 -6 q 446 -233 517 -178 q 275 -287 375 -287 q 103 -232 171 -287 q 35 -100 35 -176 q 54 -6 35 -46 q 117 79 74 35 l 304 283 l 449 283 l 271 88 q 299 92 286 92 q 453 43 390 92 m 383 -96 q 353 -32 383 -54 q 276 -10 322 -10 q 198 -31 229 -10 q 167 -96 167 -53 q 199 -158 167 -136 q 276 -181 231 -181 q 353 -158 322 -181 q 383 -96 383 -136 z "},"₇":{"ha":463,"x_min":13,"x_max":450,"o":"m 450 207 l 218 -282 l 82 -282 l 307 168 l 13 168 l 13 282 l 450 282 l 450 207 z "},"₈":{"ha":565,"x_min":42,"x_max":522,"o":"m 522 -117 q 456 -240 522 -192 q 283 -289 390 -289 q 108 -241 175 -289 q 42 -117 42 -193 q 144 11 42 -32 q 64 126 64 51 q 125 244 64 197 q 283 290 186 290 q 440 244 379 290 q 501 126 501 197 q 421 11 501 56 q 522 -117 522 -32 m 196 121 q 219 76 196 93 q 283 60 243 60 q 347 76 324 60 q 371 121 371 93 q 347 171 371 153 q 283 189 324 189 q 219 171 243 189 q 196 121 196 153 m 174 -114 q 203 -168 174 -149 q 283 -187 232 -187 q 363 -168 333 -187 q 392 -114 392 -149 q 362 -62 392 -82 q 283 -42 332 -42 q 203 -62 233 -42 q 174 -114 174 -82 z "},"₉":{"ha":551,"x_min":35,"x_max":517,"o":"m 97 -40 q 66 -16 97 -40 q 35 94 35 8 q 106 235 35 181 q 276 290 176 290 q 449 235 381 290 q 517 103 517 179 q 498 8 517 47 q 436 -78 479 -32 l 249 -281 l 104 -281 l 282 -86 q 253 -89 260 -89 q 97 -40 160 -89 m 168 99 q 198 34 168 56 q 275 13 228 13 q 353 34 322 13 q 385 99 385 56 q 353 160 385 139 q 275 182 322 182 q 199 160 229 182 q 168 99 168 139 z "},"€":{"ha":843,"x_min":36,"x_max":803,"o":"m 803 204 l 803 26 q 607 -14 724 -14 q 335 74 446 -14 q 185 319 224 163 l 36 319 l 36 435 l 167 435 q 167 521 165 475 l 36 521 l 36 635 l 186 635 q 339 869 228 786 q 607 953 450 953 q 803 917 726 953 l 803 735 q 628 781 728 781 q 394 635 457 781 l 674 635 l 674 521 l 356 521 q 354 435 351 483 l 674 435 l 674 319 l 390 319 q 628 160 451 160 q 803 204 733 160 z "},"₹":{"ha":867,"x_min":60,"x_max":822,"o":"m 822 575 l 686 575 q 617 436 672 493 q 479 354 563 379 l 722 0 l 507 0 l 294 333 l 60 333 l 60 469 l 301 469 q 485 575 451 469 l 60 575 l 60 699 l 483 699 q 301 803 451 803 l 60 803 l 60 939 l 822 939 l 822 814 l 593 814 q 678 699 663 772 l 822 699 l 822 575 z "},"₺":{"ha":856,"x_min":36,"x_max":828,"o":"m 649 393 l 828 393 q 683 101 818 214 q 347 -11 547 -11 q 200 7 256 -11 l 200 371 l 36 331 l 36 453 l 200 493 l 200 581 l 36 540 l 36 664 l 200 704 l 200 939 l 394 939 l 394 750 l 692 824 l 692 700 l 394 626 l 394 540 l 692 613 l 692 490 l 394 417 l 394 154 q 574 223 504 158 q 649 393 643 288 z "},"₽":{"ha":879,"x_min":36,"x_max":839,"o":"m 808 174 l 410 174 l 410 0 l 217 0 l 217 174 l 36 174 l 36 299 l 217 299 l 217 386 l 36 386 l 36 511 l 217 511 l 217 939 l 506 939 q 751 869 663 939 q 839 667 839 799 q 744 460 839 535 q 485 386 649 386 l 410 386 l 410 299 l 808 299 l 808 174 m 483 801 l 410 801 l 410 511 l 486 511 q 654 656 654 511 q 483 801 654 801 z "},"™":{"ha":1193,"x_min":24,"x_max":1092,"o":"m 299 508 l 174 508 l 174 882 l 24 882 l 24 997 l 449 997 l 449 882 l 299 882 l 299 508 m 738 508 l 611 858 l 611 508 l 492 508 l 492 997 l 681 997 l 796 664 l 913 997 l 1092 997 l 1092 508 l 972 508 l 972 854 l 847 508 l 738 508 z "},"℮":{"ha":1157,"x_min":35,"x_max":1122,"o":"m 979 189 l 1038 189 q 594 -14 886 -14 q 193 133 351 -14 q 35 497 35 281 q 194 853 35 699 q 579 1008 353 1008 q 960 862 811 1008 q 1122 482 1108 715 l 271 482 q 242 451 242 482 l 242 217 q 350 80 242 136 q 594 24 458 24 q 826 66 726 24 q 979 189 926 108 m 242 790 l 242 547 q 271 517 242 517 l 888 517 q 915 547 915 517 l 915 782 q 813 914 915 856 q 579 972 710 972 q 346 916 450 972 q 242 790 242 860 z "},"∂":{"ha":839,"x_min":38,"x_max":801,"o":"m 38 361 q 140 618 38 518 q 400 718 243 718 q 451 710 426 718 l 231 997 l 447 997 l 672 704 q 772 537 743 611 q 801 358 801 463 q 694 97 801 207 q 419 -14 586 -14 q 144 94 251 -14 q 38 361 38 203 m 287 515 q 261 488 287 515 q 235 364 235 461 q 287 213 235 267 q 419 158 339 158 q 550 211 499 158 q 601 360 601 264 q 549 514 601 458 q 419 569 497 569 q 287 515 339 569 z "},"∆":{"ha":1001,"x_min":17,"x_max":985,"o":"m 985 0 l 17 0 l 393 997 l 611 997 l 985 0 m 496 782 l 275 167 l 714 167 l 496 782 z "},"∏":{"ha":1050,"x_min":103,"x_max":947,"o":"m 301 -268 l 103 -268 l 103 997 l 947 997 l 947 -268 l 747 -268 l 747 825 l 301 825 l 301 -268 z "},"∑":{"ha":896,"x_min":53,"x_max":843,"o":"m 843 -268 l 53 -268 l 53 -111 l 439 375 l 67 838 l 67 997 l 838 997 l 838 825 l 314 825 l 672 374 l 296 -96 l 843 -96 l 843 -268 z "},"−":{"ha":917,"x_min":111,"x_max":806,"o":"m 806 390 l 111 390 l 111 557 l 806 557 l 806 390 z "},"∕":{"ha":917,"x_min":171,"x_max":746,"o":"m 350 0 l 171 0 l 567 939 l 746 939 l 350 0 z "},"∙":{"ha":917,"x_min":328,"x_max":589,"o":"m 589 472 q 552 378 589 415 q 458 342 515 342 q 365 378 401 342 q 328 472 328 415 q 365 569 328 532 q 458 606 401 606 q 552 569 515 606 q 589 472 589 532 z "},"√":{"ha":1213,"x_min":111,"x_max":1201,"o":"m 1201 997 l 742 -268 l 524 -268 l 315 296 l 111 296 l 111 468 l 467 468 l 638 -39 l 1001 997 l 1201 997 z "},"∞":{"ha":1508,"x_min":38,"x_max":1471,"o":"m 1471 371 q 1371 94 1471 203 q 1111 -14 1271 -14 q 754 211 903 -14 q 396 -14 603 -14 q 138 94 238 -14 q 38 371 38 203 q 138 648 38 540 q 396 756 238 756 q 598 696 513 756 q 754 532 683 636 q 1111 756 903 756 q 1371 648 1271 756 q 1471 371 1471 540 m 288 526 q 263 496 288 526 q 238 371 238 467 q 288 216 238 275 q 422 157 339 157 q 555 215 497 157 q 664 371 613 272 q 555 527 613 469 q 422 585 497 585 q 288 526 339 585 m 844 371 q 1086 157 951 157 q 1220 216 1169 157 q 1271 371 1271 275 q 1220 526 1271 467 q 1086 585 1169 585 q 844 371 950 585 z "},"∫":{"ha":694,"x_min":60,"x_max":635,"o":"m 443 758 l 443 -10 q 366 -215 443 -147 q 164 -282 289 -282 q 60 -267 107 -282 l 60 -87 q 140 -104 93 -104 q 250 6 250 -104 l 250 763 q 324 948 250 886 q 513 1010 399 1010 q 635 988 578 1010 l 635 840 q 551 860 600 860 q 474 834 506 860 q 443 758 443 808 z "},"≈":{"ha":917,"x_min":81,"x_max":836,"o":"m 629 493 q 506 522 572 493 q 387 578 440 550 q 306 606 333 606 q 253 580 269 606 q 238 492 236 554 l 81 492 q 122 698 63 618 q 289 778 182 778 q 411 750 346 778 q 531 694 476 722 q 613 667 585 667 q 665 692 649 667 q 679 781 681 718 l 836 781 q 797 574 856 654 q 629 493 738 493 m 629 171 q 506 199 572 171 q 387 256 440 228 q 306 283 333 283 q 253 258 269 283 q 238 169 236 232 l 81 169 q 122 376 63 296 q 289 456 182 456 q 411 428 346 456 q 531 372 476 400 q 613 344 585 344 q 665 370 649 344 q 679 458 681 396 l 836 458 q 797 251 856 332 q 629 171 738 171 z "},"≠":{"ha":917,"x_min":111,"x_max":806,"o":"m 271 229 l 111 229 l 111 396 l 336 396 l 404 551 l 111 551 l 111 719 l 469 719 l 567 939 l 746 939 l 647 719 l 806 719 l 806 551 l 583 551 l 515 396 l 806 396 l 806 229 l 450 229 l 350 0 l 171 0 l 271 229 z "},"≤":{"ha":917,"x_min":111,"x_max":806,"o":"m 111 657 l 806 940 l 806 772 l 306 581 l 806 388 l 806 221 l 111 504 l 111 657 m 806 0 l 111 0 l 111 168 l 806 168 l 806 0 z "},"≥":{"ha":917,"x_min":111,"x_max":806,"o":"m 806 504 l 111 221 l 111 388 l 611 581 l 111 772 l 111 940 l 806 657 l 806 504 m 806 0 l 111 0 l 111 168 l 806 168 l 806 0 z "},"◊":{"ha":1004,"x_min":154,"x_max":849,"o":"m 613 -268 l 393 -268 l 154 365 l 393 997 l 613 997 l 849 365 l 613 -268 m 347 365 l 497 -53 l 644 365 l 497 782 l 347 365 z "},"":{"ha":2415,"x_min":100,"x_max":2210,"o":"m 100 0 l 100 972 l 400 972 l 400 0 l 100 0 m 463 689 l 463 972 l 763 972 l 763 689 l 463 689 m 824 0 l 824 972 l 1125 972 l 1125 0 l 824 0 m 1186 689 l 1186 972 l 1486 972 l 1486 689 l 1186 689 m 1547 0 l 1547 972 l 1849 972 l 1849 0 l 1547 0 m 1910 689 l 1910 972 l 2210 972 l 2210 689 l 1910 689 m 1910 343 l 1910 628 l 2210 628 l 2210 343 l 1910 343 z "},"ﬁ":{"ha":919,"x_min":7,"x_max":864,"o":"m 864 914 q 828 832 864 864 q 735 800 792 800 q 642 832 678 800 q 606 914 606 864 q 642 998 606 965 q 735 1031 678 1031 q 828 998 792 1031 q 864 914 864 965 m 349 0 l 157 0 l 157 576 l 7 576 l 7 742 l 157 742 l 157 782 q 216 953 157 893 q 390 1013 275 1013 q 510 990 458 1013 l 510 838 q 436 850 478 850 q 349 778 349 850 l 349 742 l 542 742 l 542 576 l 349 576 l 349 0 m 832 0 l 640 0 l 640 742 l 832 742 l 832 0 z "},"ﬂ":{"ha":921,"x_min":7,"x_max":835,"o":"m 349 0 l 157 0 l 157 576 l 7 576 l 7 742 l 157 742 l 157 782 q 216 953 157 893 q 390 1013 275 1013 q 510 990 458 1013 l 510 838 q 436 850 478 850 q 349 778 349 850 l 349 742 l 542 742 l 542 576 l 349 576 l 349 0 m 835 0 l 640 0 l 640 997 l 835 997 l 835 0 z "}}}
